<?xml version="1.0" encoding="UTF-8" standalone="no"?>
<!-- Created with Inkscape (http://www.inkscape.org/) -->

<svg
   width="128"
   height="128"
   viewBox="0 0 33.866666 33.866666"
   version="1.1"
   id="svg3357"
   inkscape:version="1.2.2 (732a01da63, 2022-12-09)"
   sodipodi:docname="grid.svg"
   xmlns:inkscape="http://www.inkscape.org/namespaces/inkscape"
   xmlns:sodipodi="http://sodipodi.sourceforge.net/DTD/sodipodi-0.dtd"
   xmlns="http://www.w3.org/2000/svg"
   xmlns:svg="http://www.w3.org/2000/svg">
  <sodipodi:namedview
     id="namedview3359"
     pagecolor="#ffffff"
     bordercolor="#666666"
     borderopacity="1.0"
     inkscape:showpageshadow="2"
     inkscape:pageopacity="0.0"
     inkscape:pagecheckerboard="true"
     inkscape:deskcolor="#d1d1d1"
     inkscape:document-units="px"
     showgrid="false"
     showguides="true"
     inkscape:zoom="2.8284271"
     inkscape:cx="97.580735"
     inkscape:cy="87.327687"
     inkscape:window-width="1920"
     inkscape:window-height="1009"
     inkscape:window-x="-8"
     inkscape:window-y="-8"
     inkscape:window-maximized="1"
     inkscape:current-layer="g1695">
    <sodipodi:guide
       position="25.399999,8.4666665"
       orientation="-1,0"
       id="guide4733"
       inkscape:locked="false"
       inkscape:label=""
       inkscape:color="rgb(0,134,229)" />
    <sodipodi:guide
       position="25.399999,8.4666665"
       orientation="0,1"
       id="guide4735"
       inkscape:locked="false"
       inkscape:label=""
       inkscape:color="rgb(0,134,229)" />
    <sodipodi:guide
       position="8.4666665,25.399999"
       orientation="-1,0"
       id="guide11731"
       inkscape:locked="false"
       inkscape:label=""
       inkscape:color="rgb(0,134,229)" />
    <sodipodi:guide
       position="16.933333,16.933333"
       orientation="-1,0"
       id="guide11733"
       inkscape:locked="false"
       inkscape:label=""
       inkscape:color="rgb(0,134,229)" />
    <sodipodi:guide
       position="8.4666665,25.399999"
       orientation="0,1"
       id="guide11735"
       inkscape:locked="false"
       inkscape:label=""
       inkscape:color="rgb(0,134,229)" />
    <sodipodi:guide
       position="16.933333,16.933333"
       orientation="0,1"
       id="guide11737"
       inkscape:locked="false"
       inkscape:label=""
       inkscape:color="rgb(0,134,229)" />
  </sodipodi:namedview>
  <defs
     id="defs3354" />
  <g
     transform="matrix(0.26458333,0,0,0.26458333,8.4024433,8.3928172)"
     id="g1695">
    <path
       id="path10535"
       style="display:inline;fill:#d1d7db;fill-opacity:1;stroke-width:0.992064"
       d="m 77.991654,64.895292 c -1.460153,-0.179154 -2.800299,-0.08112 -4.018881,0.296439 h -0.04845 c -0.944843,0.3069 -2.102325,0.356887 -3.472437,0.149187 -1.595667,-0.233921 -3.083857,-0.349267 -4.464563,-0.346813 h -0.05038 c -0.256686,0.0033 -0.487407,0.103216 -0.693712,0.298375 -0.120786,0.147638 -0.203463,0.312972 -0.248032,0.496002 v 0.197626 c 0.02635,1.304197 -0.04096,2.196226 -0.199587,2.677632 -0.261854,0.66805 -0.277226,1.825389 -0.04845,3.472009 0.197004,1.392806 0.329675,2.567453 0.397238,3.522384 0.05982,0.980117 -0.273879,2.258138 -0.397238,3.917634 0.520757,1.658612 0.73037,2.770653 0.792461,3.126708 h -0.04845 c 0.269863,0.91192 0.285236,1.82126 0.04845,2.72801 -0.283297,1.24593 -0.29867,2.70128 -0.04845,4.3652 0.240151,1.36735 0.09017,2.64005 -0.447619,3.81882 -0.04457,0.14854 -0.05993,0.29851 -0.04845,0.44756 0.0056,0.10734 0.02092,0.20538 0.04845,0.29644 l 0.05038,0.0504 c 0.0089,0.0233 0.0089,0.0406 0,0.0504 0.114974,0.21894 0.280328,0.36696 0.496063,0.44563 0.148302,0.0779 0.296346,0.11056 0.445681,0.0988 1.33265,-0.0526 2.194044,-0.0353 2.581076,0.0504 0.466349,0.26027 1.375799,0.4083 2.728343,0.44562 1.211993,0.036 2.517518,-0.0139 3.918118,-0.14918 1.302163,-0.12826 2.690366,-0.16094 4.16615,-0.0988 h 0.05038 c 1.419013,0.07342 1.749259,0.06345 2.776178,-0.09879 1.227307,-0.195244 2.64825,-0.16586 4.21653,-0.49601 1.41946,-0.22139 2.59231,-0.27138 3.52088,-0.14918 1.07506,0.13226 2.36521,0.2976 3.86968,0.496 0.28316,0.0351 0.5312,-0.0302 0.74409,-0.19763 0.22323,-0.17166 0.3559,-0.40429 0.39724,-0.69556 0.0109,-0.0654 0.0109,-0.14803 0,-0.248 0.0306,-1.21611 -0.0694,-2.22348 -0.29842,-3.02445 -0.14817,-0.66004 -0.14817,-1.51939 0,-2.57882 0.22543,-1.25059 0.37541,-2.72323 0.44762,-4.41557 0,-2.80746 0,-2.887829 -0.19949,-5.804481 -0.032,-1.378985 -0.0147,-2.686287 0.0504,-3.919573 0.0668,-1.272422 0.0822,-2.627774 0.0485,-4.066823 v -0.04844 c 0,-1.363356 -0.0155,-2.703337 -0.0485,-4.018385 v -0.05037 c -0.003,-0.256397 -0.10336,-0.48709 -0.29841,-0.693627 -0.1443,-0.11793 -0.30966,-0.200597 -0.49607,-0.248001 -0.0579,0.0082 -0.12324,0.0082 -0.19765,0 h -0.0988 c -1.05,0.03152 -2.07674,-0.05115 -3.07713,-0.248001 -1.08605,-0.165075 -2.2589,-0.215063 -3.52089,-0.149188 h -0.0504 c -1.04715,0.093 -2.07196,0.02765 -3.0752,-0.197626 -1.93398,0 -3.791238,0.496045 -6.198249,0.496045 z m 3.780209,-96.075423 c -1.16309,0.147806 -2.503237,0.115095 -3.780209,-0.04412 -1.460153,-0.179381 -2.800299,-0.08122 -4.018881,0.296813 h -0.04845 c -0.944843,0.307288 -2.102325,0.357338 -3.472437,0.149376 -1.595667,-0.234217 -3.083857,-0.349708 -4.464563,-0.347251 h -0.05038 c -0.256686,0.0033 -0.487407,0.103346 -0.693712,0.298752 -0.120786,0.147824 -0.203463,0.313367 -0.248032,0.496629 v 0.197875 c 0.02635,1.305845 -0.04096,2.199002 -0.199587,2.681016 -0.261854,0.668894 -0.277226,1.827696 -0.04845,3.476397 0.197004,1.394566 0.329675,2.570697 0.397238,3.526835 0.05982,0.981356 -0.07286,2.288369 -0.397238,3.922585 -0.34621,1.95392 -0.34621,3.676731 0,5.166096 v 0.0485 c 0.309134,1.098272 0.309134,1.9760378 0,2.6325174 -0.553031,1.031149 -0.454981,2.4883157 0.296475,4.3707153 0.526549,1.3050701 0.54386,2.4812016 0.05038,3.52683554 h -0.05038 c -0.02648,0.12376891 -0.04186,0.23926104 -0.04845,0.34725168 -0.0095,0.0742355 -0.0095,0.13967671 0,0.19787526 v 0.0504388 c 0.122465,0.95471487 0.08979,1.59955672 -0.09883,1.93607362 -0.01693,0.017202 -0.03424,0.034532 -0.05038,0.050439 -0.524999,0.6138007 -0.707664,1.7879922 -0.546444,3.5248956 0.114628,0.9757053 0.246252,1.8447391 0.383674,2.6635562 0.0212,0.194329 0.03476,0.3736603 0.06394,0.5839259 0.197004,1.3945573 0.329675,2.5687627 0.397238,3.5248957 0.01495,0.245338 0.01681,0.51118 0.0077,0.797321 -0.02717,0.858424 -0.161705,1.901549 -0.404989,3.127205 -0.34621,1.953906 -0.34621,3.674797 0,5.164156 v 0.05043 c 0.309134,1.098262 0.309134,1.974102 0,2.630577 -0.553031,1.031145 -0.454981,2.488325 0.296475,4.370716 0.06126,0.151831 0.09207,0.295928 0.139518,0.444248 -0.04821,0.127031 -0.0826,0.257256 -0.139518,0.382172 -0.04457,0.148729 -0.05993,0.298882 -0.04845,0.448129 0.0056,0.107474 0.02092,0.205635 0.04845,0.296813 l 0.05038,0.05043 c 0.0089,0.02341 0.0089,0.0388 0,0.0485 0.08577,0.163539 0.208881,0.275462 0.350732,0.360831 -0.01513,0.524209 -0.128226,1.024238 -0.350732,1.495705 h -0.05038 c -0.02648,0.123766 -0.04186,0.239259 -0.04845,0.347251 -0.0095,0.07422 -0.0095,0.139672 0,0.197876 v 0.05043 c 0.122464,0.95471 0.08979,1.599559 -0.09883,1.936073 -0.01693,0.01721 -0.03424,0.03454 -0.05038,0.05043 -0.524999,0.613799 -0.707664,1.789943 -0.546444,3.526835 0.172589,1.469058 0.372565,2.758755 0.596826,3.872148 0.22917,1.03968 0.311847,2.44681 0.248031,4.221339 -0.06718,2.068103 0.06356,3.640782 0.395299,4.717967 h -0.04845 c 0.269863,0.913066 0.285236,1.82356 0.04845,2.731455 -0.283297,1.247507 -0.29867,2.704695 -0.04845,4.370714 0.240151,1.369084 0.09017,2.643391 -0.447619,3.823649 -0.04457,0.148731 -0.05993,0.298883 -0.04845,0.44813 0.0056,0.107469 0.02092,0.205632 0.04845,0.296812 l 0.05038,0.05043 c 0.0089,0.02337 0.0089,0.0407 0,0.05043 0.114974,0.219212 0.280328,0.367425 0.496063,0.446191 0.148302,0.07798 0.296346,0.110703 0.445681,0.09893 1.33265,-0.05265 2.194044,-0.03531 2.581076,0.05043 0.466349,0.260604 1.375799,0.408816 2.728343,0.446188 1.211993,0.03609 2.517518,-0.01397 3.918118,-0.149375 1.302163,-0.128422 2.690366,-0.161143 4.16615,-0.09893 h 0.05038 c 1.640255,-0.03329 1.724199,-0.06808 2.776178,-0.09891 1.242167,-0.03778 2.64825,-0.166061 4.21653,-0.496628 1.41946,-0.221672 2.59231,-0.271723 3.52088,-0.149376 1.07506,0.132433 2.36521,0.297976 3.86968,0.496628 0.28316,0.03518 0.5312,-0.03026 0.74409,-0.197875 0.22323,-0.17188 0.3559,-0.404805 0.39724,-0.696443 0.0109,-0.06544 0.0109,-0.148214 0,-0.248315 0.0306,-1.217642 -0.0694,-2.226292 -0.29842,-3.028267 -0.14817,-0.660877 -0.14817,-1.521313 0,-2.582079 0.22543,-1.252174 0.37541,-2.726671 0.44762,-4.421154 0.0767,-1.792903 -0.0733,-3.182688 -0.44762,-4.170899 h -0.0485 c -0.22309,-0.700195 -0.20772,-1.56063 0.0485,-2.582079 0.42308,-1.376589 0.39039,-3.08207 -0.0988,-5.115657 -0.31236,-1.503851 -0.22968,-2.712703 0.24804,-3.625774 0.7698,-1.24519 0.83516,-2.652305 0.19765,-4.221339 0.31768,-1.483323 0.29986,-2.525657 -0.0485,-3.136904 0.005,-1.063641 -0.0915,-1.966264 -0.29842,-2.690716 -0.14817,-0.660876 -0.14817,-1.523252 0,-2.584018 0.22543,-1.252175 0.37541,-2.724731 0.44762,-4.419215 0.0583,-1.361805 -0.017,-2.487657 -0.21896,-3.385219 0.0192,-0.459499 0.0295,-0.927222 0.0194,-1.414225 -0.032,-1.380728 -0.0147,-2.687742 0.0504,-3.922585 0.0668,-1.2740314 0.0822,-2.6330365 0.0485,-4.0739035 V 6.438001 c 0,-1.0010993 -0.0171,-1.9755841 -0.0349,-2.9506694 0.60623,-1.1702019 0.62191,-2.4758588 0.0349,-3.92064613 0.33316,-1.55558257 0.30048,-2.63161237 -0.0988,-3.22808257 -0.18939,-0.4006646 -0.35474,-1.1629385 -0.49606,-2.2852654 -0.16161,-1.2281186 -0.22698,-2.5524629 -0.19765,-3.9730248 0.0289,-1.3866787 0.14429,-2.6936927 0.34685,-3.9225867 0.26366,-1.268599 0.37902,-2.675714 0.34686,-4.221339 -0.032,-1.380727 -0.0147,-2.689681 0.0504,-3.924526 0.0668,-1.27403 0.0822,-2.631095 0.0485,-4.071962 v -0.0485 c 0,-1.365078 -0.0155,-2.706753 -0.0485,-4.023463 v -0.05043 c -0.003,-0.256721 -0.10336,-0.487706 -0.29841,-0.694504 -0.1443,-0.118079 -0.30966,-0.20085 -0.49607,-0.248314 -0.0579,0.0082 -0.12324,0.0082 -0.19765,0 h -0.0988 c -1.05,0.03156 -2.07674,-0.05122 -3.07713,-0.248315 -1.08605,-0.165283 -2.2589,-0.215335 -3.52089,-0.149376 h -0.0504 c -1.04715,0.09312 -2.063308,-0.01513 -3.0752,-0.197876 -1.681309,0.156058 -1.426203,0.293384 -2.41804,0.540755 z M 18.713816,-31.71701 c -1.01184,-0.03241 -2.124202,0.185323 -3.336795,0.66069 -0.02853,0.01118 -0.05109,0.03202 -0.08138,0.031 -0.271775,-0.0091 -0.540476,-0.04637 -0.8061,-0.07944 -1.240602,-0.152216 -2.388784,-0.09272 -3.454998,0.156938 -0.786422,-0.154813 -1.6451834,-0.307427 -2.6527723,-0.455314 h -0.048443 c -1.6886776,-0.20783 -3.1288119,-0.20783 -4.3172936,0 h -0.048443 c -0.9705504,0.228368 -2.3433802,0.361022 -4.11770603,0.397189 h -0.0503836 c -1.26004907,-0.270863 -2.40021987,-0.32085 -3.42205587,-0.149188 h -0.050381 c -0.8017085,0.193751 -1.7938354,0.261046 -2.9763749,0.199563 h -0.048443 c -1.2400258,-0.0332 -2.3821344,-0.06781 -3.4239937,-0.10075 -1.028812,-0.03423 -2.301654,-0.01692 -3.819293,0.05037 h -0.04845 c -1.401763,0.09287 -2.74191,0.0602 -4.018882,-0.09881 -1.460153,-0.179154 -2.800299,-0.08112 -4.018881,0.296439 h -0.04845 c -0.944843,0.3069 -2.102325,0.356887 -3.472437,0.149187 -1.595667,-0.233921 -3.083857,-0.349267 -4.464563,-0.346813 h -0.05038 c -0.256686,0.0033 -0.487407,0.103216 -0.693712,0.298375 -0.120786,0.147638 -0.203463,0.312972 -0.248032,0.496002 v 0.197626 c 0.02635,1.304197 -0.04096,2.196226 -0.199587,2.677632 -0.261854,0.66805 -0.277226,1.825389 -0.04845,3.472009 0.197004,1.392806 0.329675,2.567453 0.397238,3.522384 0.05982,0.980117 -0.07286,2.285481 -0.397238,3.917634 -0.34621,1.951454 -0.34621,3.67209 0,5.159576 v 0.04844 c 0.309134,1.096885 0.309134,1.9735436 0,2.6291946 -0.553031,1.0298476 -0.454981,2.4851751 0.296475,4.3651989 0.526549,1.3034229 0.54386,2.47807 0.05038,3.52238419 h -0.05038 c -0.02648,0.12361269 -0.04186,0.23895906 -0.04845,0.3468134 -0.0095,0.0741418 -0.0095,0.13950042 0,0.19762551 v 0.0503751 c 0.122465,0.95350989 0.08979,1.5975379 -0.09883,1.9336301 -0.01693,0.01718 -0.03424,0.034488 -0.05038,0.050375 -0.524999,0.613026 -0.707664,1.7857355 -0.546444,3.5204467 0.114628,0.9744738 0.246252,1.8424108 0.383674,2.6601944 0.0212,0.1940838 0.03476,0.3731887 0.06394,0.583189 0.197004,1.3927971 0.329675,2.5655201 0.397238,3.5204471 0.01495,0.245028 0.01681,0.510534 0.0077,0.796314 -0.02717,0.857341 -0.161705,1.899149 -0.404989,3.123258 -0.34621,1.95144 -0.34621,3.670159 0,5.157639 v 0.05037 c 0.309134,1.096876 0.309134,1.97161 0,2.627257 -0.553031,1.029843 -0.454981,2.485184 0.296475,4.365199 0.06126,0.15164 0.09207,0.295555 0.139518,0.443688 -0.04821,0.12687 -0.0826,0.256931 -0.139518,0.381689 -0.04457,0.148542 -0.05993,0.298505 -0.04845,0.447564 0.0056,0.107338 0.02092,0.205375 0.04845,0.296438 l 0.05038,0.05037 c 0.0089,0.02338 0.0089,0.03875 0,0.04844 0.08577,0.163333 0.208881,0.275114 0.350732,0.360376 -0.01513,0.523547 -0.128226,1.022945 -0.350732,1.493817 h -0.05038 c -0.02648,0.12361 -0.04186,0.238957 -0.04845,0.346813 -0.0095,0.07413 -0.0095,0.139495 0,0.197626 v 0.05037 c 0.122464,0.953505 0.08979,1.59754 -0.09883,1.93363 -0.01693,0.01719 -0.03424,0.0345 -0.05038,0.05037 -0.524999,0.613024 -0.707664,1.787684 -0.546444,3.522384 0.172589,1.467204 0.372565,2.755273 0.596826,3.867261 0.22917,1.038367 0.311847,2.443721 0.248031,4.216011 -0.06718,2.065492 0.06356,3.636186 0.395299,4.712012 h -0.04845 c 0.269863,0.911913 0.285236,1.821258 0.04845,2.728007 -0.283297,1.245933 -0.29867,2.701282 -0.04845,4.365198 0.240151,1.367356 0.09017,2.640055 -0.447619,3.818823 -0.04457,0.148543 -0.05993,0.298506 -0.04845,0.447564 0.0056,0.107334 0.02092,0.205373 0.04845,0.296438 l 0.05038,0.05037 c 0.0089,0.02334 0.0089,0.04065 0,0.05037 0.114974,0.218935 0.280328,0.366961 0.496063,0.445627 0.148302,0.07788 0.296346,0.110564 0.445681,0.09881 1.33265,-0.05258 2.194044,-0.03527 2.581076,0.05037 0.466349,0.260275 1.375799,0.4083 2.728343,0.445625 1.211993,0.03604 2.517518,-0.01395 3.918118,-0.149187 1.302163,-0.12826 2.690366,-0.160939 4.16615,-0.09881 h 0.05038 c 1.597733,0.102818 3.053241,0.08744 4.365737,-0.04844 1.26638,-0.09661 2.5719047,-0.113922 3.9181192,-0.05037 1.4229484,0.06833 2.7957782,0.05102 4.117706,-0.05037 1.2891152,-0.06488 2.5619572,-0.09755 3.81929343,-0.09881 h 0.0504067 c 1.05158313,0.05751 1.87257447,0.04186 2.55782207,-0.01743 0.075186,0.01694 0.1493281,0.02338 0.2247783,0.01744 1.33265,-0.05257 2.1940436,-0.03526 2.5810751,0.05037 0.4663499,0.26027 1.3757995,0.408296 2.7283436,0.445625 1.2119931,0.03604 2.5175186,-0.01395 3.9181186,-0.149187 1.302163,-0.128263 2.690365,-0.160943 4.166149,-0.09881 h 0.05038 c 1.597734,0.102817 3.053241,0.08744 4.365738,-0.04844 1.266379,-0.09662 2.571904,-0.113925 3.918118,-0.05037 1.422949,0.06833 2.795779,0.05102 4.117706,-0.05037 1.289115,-0.06485 2.561957,-0.09752 3.819294,-0.09881 h 0.05038 c 1.280072,0.07001 2.287572,0.05464 3.024818,-0.04844 0.748227,-0.06355 1.724981,-0.08086 2.927932,-0.05037 1.305263,0.06665 2.76077,0.08396 4.365737,0.05037 1.583006,0.0012 2.953898,0.03387 4.115768,0.09881 1.207343,0.06665 2.399445,0.09933 3.5732,0.09881 1.242738,-5.17e-4 2.648252,-0.165851 4.216531,-0.496001 1.419461,-0.221392 2.592315,-0.27138 3.520881,-0.149188 1.075059,0.132266 2.365212,0.2976 3.869675,0.496001 0.283169,0.03514 0.5312,-0.03022 0.744093,-0.197625 0.223228,-0.171663 0.355899,-0.404294 0.397238,-0.695564 0.01085,-0.06536 0.01085,-0.148027 0,-0.248001 0.03062,-1.216106 -0.06937,-2.223482 -0.298412,-3.024445 -0.148173,-0.660043 -0.148173,-1.519393 0,-2.57882 0.225424,-1.250594 0.375405,-2.72323 0.447618,-4.415574 0.07673,-1.79064 -0.07325,-3.178671 -0.447618,-4.165635 h -0.04845 c -0.223098,-0.699311 -0.207726,-1.55866 0.04845,-2.57882 0.423073,-1.374852 0.390389,-3.07818 -0.09883,-5.1092 -0.312364,-1.501953 -0.229687,-2.70928 0.248032,-3.621198 0.7698,-1.243619 0.835166,-2.648958 0.19765,-4.216011 0.317686,-1.481451 0.299867,-2.52247 -0.04845,-3.132945 0.005,-1.062299 -0.09151,-1.963782 -0.298412,-2.68732 -0.148173,-0.660042 -0.148173,-1.52133 0,-2.580757 0.225424,-1.250594 0.375405,-2.721292 0.447618,-4.413637 0.05829,-1.360086 -0.017,-2.484517 -0.218965,-3.380946 0.01924,-0.45892 0.02952,-0.926052 0.01938,-1.412441 -0.03204,-1.378985 -0.01473,-2.684349 0.05038,-3.917634 0.06679,-1.2724231 0.08216,-2.6297129 0.04845,-4.0687614 v -0.04844 c -9.5e-5,-0.9998357 -0.01713,-1.9730906 -0.03488,-2.9469452 0.606228,-1.168725 0.621914,-2.4727339 0.03488,-3.91569775 0.333163,-1.55361925 0.30048,-2.62829095 -0.09883,-3.22400835 -0.189383,-0.4001589 -0.354737,-1.1614707 -0.496062,-2.282381 -0.161609,-1.2265686 -0.226976,-2.5492414 -0.19765,-3.9680103 0.02894,-1.384929 0.144297,-2.690293 0.346855,-3.917636 0.263664,-1.266998 0.379024,-2.672337 0.346857,-4.216011 -0.03204,-1.378985 -0.01473,-2.686287 0.05038,-3.919573 0.06679,-1.272422 0.08216,-2.627774 0.04845,-4.066823 v -0.04844 c -1.29e-4,-1.363356 -0.01551,-2.703337 -0.04845,-4.018385 v -0.05037 c -0.0034,-0.256397 -0.10336,-0.48709 -0.298412,-0.693627 -0.144298,-0.11793 -0.309652,-0.200597 -0.496063,-0.248001 -0.05787,0.0082 -0.12324,0.0082 -0.19765,0 h -0.09882 c -1.049999,0.03152 -2.076744,-0.05115 -3.077137,-0.248001 -1.086042,-0.165075 -2.258892,-0.215063 -3.520881,-0.149188 h -0.05038 c -1.047158,0.093 -2.071965,0.02765 -3.075201,-0.197626 -1.259663,-0.268279 -2.697854,-0.08757 -4.315355,0.54444 -1.134356,0.508141 -2.12648,0.658105 -2.976375,0.447563 v -0.05037 c -1.050645,-0.257042 -2.390788,-0.505043 -4.018881,-0.744002 h -0.04845 c -1.688681,-0.20783 -3.12881,-0.20783 -4.317294,0 h -0.04845 c -0.970552,0.228368 -2.343377,0.361022 -4.117706,0.397189 h -0.05038 c -1.260052,-0.270863 -2.400219,-0.32085 -3.422057,-0.149188 h -0.05038 c -0.195486,0.04725 -0.401948,0.08611 -0.620078,0.118188 -0.630089,-0.035 -1.254496,-0.09666 -1.866047,-0.217001 -1.08604,-0.165075 -2.258894,-0.215063 -3.520881,-0.149188 h -0.05038 c -1.047155,0.093 -2.071966,0.02765 -3.075199,-0.197626 -0.314916,-0.06707 -0.641281,-0.105448 -0.978561,-0.11625 z m 0.399686,95.999885 c -1.01988,-0.03267 -2.14107,0.186817 -3.36328,0.666016 -0.0288,0.01127 -0.0515,0.03228 -0.082,0.03125 -0.27394,-0.0092 -0.54477,-0.04674 -0.8125,-0.08008 -1.25045,-0.153443 -2.40775,-0.09347 -3.48243,0.158204 -0.79266,-0.156061 -1.6582402,-0.309906 -2.6738202,-0.458985 h -0.0488 c -1.70208,-0.209505 -3.15365,-0.209505 -4.35156,0 h -0.0488 c -0.97826,0.230209 -2.36198,0.363933 -4.15039,0.400391 h -0.0508 c -1.27005,-0.273047 -2.41927,-0.323437 -3.44921,-0.150391 h -0.0508 c -0.80807,0.195313 -1.80807,0.263151 -3,0.201172 h -0.0488 c -1.24987,-0.03347 -2.40105,-0.06836 -3.45118,-0.101562 -1.0369698,-0.03451 -2.3199198,-0.01706 -3.8496098,0.05078 h -0.0488 c -1.41289,0.09362 -2.76367,0.06068 -4.05078,-0.09961 -1.47174,-0.180598 -2.82252,-0.08177 -4.05078,0.298829 h -0.0488 c -0.95234,0.309375 -2.11901,0.359765 -3.5,0.15039 -1.60833,-0.235807 -3.10833,-0.352083 -4.5,-0.349609 h -0.0508 c -0.25872,0.0033 -0.49127,0.104048 -0.69922,0.300781 -0.12174,0.148828 -0.20508,0.315495 -0.25,0.5 v 0.199219 c 0.0266,1.314712 -0.0413,2.213932 -0.20117,2.699219 -0.26393,0.673436 -0.27943,1.840105 -0.0488,3.5 0.19857,1.404035 0.33229,2.588152 0.40039,3.550781 0.0603,0.988019 -0.0734,2.303907 -0.40039,3.949218 0.40039,1.975927 0.257739,1.901535 0.639975,3.244581 0.382235,1.343046 0.397725,2.259726 0.159025,3.173776 -0.28554,1.25598 -0.30104,2.72306 -0.0488,4.40039 0.24206,1.37838 0.0909,2.66134 -0.45117,3.84961 -0.0449,0.14974 -0.0604,0.30092 -0.0488,0.45118 0.006,0.1082 0.0211,0.20702 0.0488,0.29882 l 0.0508,0.0508 c 0.009,0.0235 0.009,0.041 0,0.0508 0.11589,0.2207 0.28255,0.36992 0.5,0.44922 0.14948,0.0785 0.2987,0.11146 0.44922,0.0996 1.34323,-0.053 2.21146,-0.0356 2.60156,0.0508 0.47005,0.26238 1.38672,0.4116 2.75,0.44922 1.22161,0.0363 2.5375,-0.0141 3.94922,-0.15039 1.3125,-0.12929 2.71172,-0.16223 4.19922,-0.0996 h 0.0508 c 1.61041,0.10365 3.07747,0.0882 4.40039,-0.0488 1.27643,-0.0974 2.5923198,-0.11484 3.9492198,-0.0508 1.43424,0.0689 2.81797,0.0514 4.15039,-0.0508 1.29935,-0.0654 2.58229,-0.0983 3.84961,-0.0996 H 6.317961e-4 c 1.0599300039,0.058 1.8874300039,0.0422 2.5781200039,-0.0176 0.0758,0.0171 0.15051,0.0236 0.22656,0.0176 1.34323,-0.053 2.21146,-0.0355 2.60157,0.0508 0.47005,0.26237 1.38672,0.41159 2.75,0.44922 1.22161,0.0363 2.5375002,-0.0141 3.9492102,-0.15039 1.3125,-0.1293 2.71172,-0.16224 4.19922,-0.0996 h 0.0508 c 1.61042,0.10365 3.07748,0.0882 4.40039,-0.0488 1.27643,-0.0974 2.59232,-0.11484 3.94922,-0.0508 1.43425,0.0689 2.81797,0.0514 4.15039,-0.0508 1.29935,-0.0654 2.5823,-0.0983 3.84961,-0.0996 h 0.0508 c 1.29024,0.0706 2.30573,0.0551 3.04883,-0.0488 0.75417,-0.0641 1.73867,-0.0815 2.95117,-0.0508 1.31563,0.0672 2.78269,0.0846 4.40039,0.0508 1.59558,0.001 2.97735,0.0341 4.14844,0.0996 1.21693,0.0672 2.41849,0.10013 3.60156,0.0996 1.25261,-5.2e-4 2.66928,-0.16719 4.25,-0.5 1.43073,-0.22318 2.61289,-0.27357 3.54883,-0.15039 1.08359,0.13333 2.38399,0.3 3.90039,0.5 0.28542,0.0354 0.53542,-0.0305 0.75,-0.19922 0.225,-0.17305 0.35873,-0.40755 0.40039,-0.70117 0.0109,-0.0659 0.0109,-0.14922 0,-0.25 0.0309,-1.22591 -0.0699,-2.24141 -0.30078,-3.04883 -0.14935,-0.66536 -0.14935,-1.53164 0,-2.59961 0.22721,-1.26068 0.37839,-2.74518 0.45117,-4.45117 0.0773,-1.80508 -0.0738,-3.2043 -0.45117,-4.19922 h -0.0488 c 0.260857,-21.632681 0.673678,19.569532 0.29881,-2.168265 -0.0323,-1.390102 -0.0148,-2.707943 0.0508,-3.951172 0.0673,-1.28268 0.0828,-2.648959 0.0488,-4.099609 v -0.04883 c -1.3e-4,-1.374347 -0.0156,-2.725131 -0.0488,-4.050781 v -0.05078 c -0.003,-0.258464 -0.10418,-0.491016 -0.30078,-0.699219 -0.14545,-0.11888 -0.31211,-0.202214 -0.5,-0.25 -0.0583,0.0083 -0.12422,0.0083 -0.19922,0 h -0.0996 c -1.05833,0.03177 -2.09323,-0.05156 -3.10156,-0.25 -1.09467,-0.166406 -2.27683,-0.216797 -3.54883,-0.150391 h -0.0508 c -1.05547,0.09375 -2.08841,0.02787 -3.09961,-0.199219 -1.26966,-0.270442 -2.71927,-0.08828 -4.34961,0.548829 -1.14336,0.512238 -2.14336,0.663411 -3,0.451171 v -0.05078 c -1.05899,-0.259114 -2.40977,-0.509115 -4.05078,-0.75 h -0.0488 c -1.70209,-0.209505 -3.15365,-0.209505 -4.35157,0 h -0.0488 c -0.97825,0.230209 -2.36197,0.363933 -4.15039,0.400391 h -0.0508 c -1.27005,-0.273047 -2.41927,-0.323437 -3.44922,-0.150391 h -0.0508 c -0.19703,0.04763 -0.40513,0.08681 -0.625,0.119141 -0.63509,-0.03528 -1.26445,-0.09744 -1.88085,-0.21875 -1.09466,-0.166406 -2.27683,-0.216797 -3.54883,-0.150391 h -0.0508 c -1.05547,0.09375 -2.08841,0.02787 -3.09961,-0.199219 -0.31742,-0.06761 -0.64637,-0.106298 -0.98633,-0.117187 z" />
    <path
       id="path11884"
       style="display:inline;fill:#ffffff;fill-opacity:1"
       d="m -0.85035218,3.1496006 h -0.05 q -1.12792972,1.920703 -0.45000002,5.1 0.61015627,2.4789064 0.15,4.1500004 l -0.05,0.05 q -0.5626953,2.257617 0.05,3.8 v 0 q 0.43378908,1.207422 0.35000002,3.4 -0.0908203,2.44082 -0.40000002,4.25 -0.3259766,2.098242 0,3.4 0.2078125,0.715234 0.25,1.7 -1.4882813,0.025 -3,0.1 h -0.05 q -1.8648437,0.145898 -3.9,0.05 -2.1648438,-0.104102 -4.1999998,0.05 v 0 q -1.870117,0.192383 -4.15,0.05 v 0 q -2.429883,-0.105078 -4.55,0.1 -1.982617,0.195508 -3.7,0.15 -1.405664,-0.04375 -1.9,-0.25 -0.03828,-0.01289 -0.1,-0.05 -0.460352,-0.217383 -2.05,-0.25 0.397461,-1.66875 0.05,-3.55 l 0.05,0.05 q -0.32168,-2.083984 0,-3.65 0.491797,-1.878906 -0.05,-3.75 v 0 q -0.398437,-1.423242 -0.3,-4.15 0.103516,-2.970117 -0.3,-4.7000004 -0.311133,-1.61875 -0.55,-3.75 -0.154297,-1.53457 0.15,-2.1 0.634961,-0.673633 0.6,-2.25 1.346094,0.06328 1.9,-0.10000004 0.635547,-0.08887 2.7,0.05 2.468945,0.159375 4.7,-0.40000044 v 0 q 1.757031,-0.34043 3,0.15 h -0.05 q 1.662695,0.78691444 4.4,0.90000044 2.8970701,0.113672 4.3999998,-0.80000044 1.2332031,-0.558984 3.75,-0.25 2.2740234,0.302539 3.45000002,0.35 0.3828125,1.18437544 -0.15,2.15000044 z m 62.00079818,0 h -0.05 q -1.12793,1.920703 -0.45,5.1 0.610156,2.4789064 0.15,4.1500004 l -0.05,0.05 q -0.562695,2.257617 0.05,3.8 v 0 q 0.433789,1.207422 0.35,3.4 -0.09082,2.44082 -0.4,4.25 -0.325977,2.098242 0,3.4 0.193359,0.658984 0.25,1.55 -1.586719,-0.201563 -2.8,-0.35 -1.646094,-0.215234 -4.15,0.2 v 0 q -2.188672,0.450586 -3.9,0.45 -1.725391,-7.81e-4 -3.5,-0.1 -1.821094,-0.100781 -4.25,-0.1 h -0.05 q -2.333789,0.04863 -4.25,-0.05 h -0.05 q -1.939062,-0.05352 -3.15,0.05 h -0.05 q -0.718554,0.100195 -1.85,0.05 -0.03008,-1.276367 -0.3,-2.2 -0.224023,-0.998047 0,-2.6 0.340821,-1.891016 0.45,-4.45 0.116016,-2.707617 -0.45,-4.2 h -0.05 q -0.337304,-1.057422 0.05,-2.6 v 0 q 0.639649,-2.078906 -0.1,-5.1500004 -0.472265,-2.271094 0.25,-3.65 v 0 q 0.858203,-1.386719 0.55,-3.05 1.067383,0.04551 1.55,-0.10000004 0.635547,-0.08887 2.7,0.05 2.468946,0.159375 4.7,-0.40000064 v 0 q 1.757031,-0.34043 3,0.15 h -0.05 q 1.662695,0.78691464 4.4,0.90000064 2.89707,0.113672 4.4,-0.80000064 1.233203,-0.558984 3.75,-0.25 2.281055,0.30332 3.45,0.35 0.382422,1.18476664 -0.15,2.15000064 M 11.596249,0.51174611 c -0.391064,0.007214 -0.806837,0.0535645 -1.246094,0.13867188 C 9.498106,0.86404587 8.619484,0.99637962 7.71539,1.0527617 7.693129,1.0514108 7.671273,1.0502943 7.648983,1.0488555 6.272683,0.95627558 5.373462,0.94078075 4.949765,1.0000274 4.932661,1.005069 4.907454,1.0070285 4.889218,1.0117461 3.985118,0.96613972 3.278927,0.95399981 2.949765,1.0000274 2.62802,1.097034 2.112524,1.1299767 1.400936,1.0996367 1.606405,2.2084896 1.42229,3.2259396 0.850155,4.150418 0.368646,5.0696877 0.285312,6.2847943 0.600155,7.7988554 1.093254,9.8462497 1.126197,11.56331 0.699765,12.949246 0.441562,13.97763 0.426067,14.843908 0.650936,15.548855 h 0.048829 c 0.377343,0.994921 0.528515,2.396096 0.451171,4.201172 -0.072785,1.705988 -0.223958,3.188543 -0.451171,4.449219 -0.149349,1.067968 -0.149349,1.934245 0,2.599609 0.179946,0.615755 0.280728,1.350262 0.300781,2.201172 0.754296,0.03346 1.370574,0.01602 1.849609,-0.05078 h 0.050781 c 0.156357,-0.01337 0.329341,-0.02181 0.503907,-0.03125 -0.00241,0.01032 -0.00341,0.02095 -0.00586,0.03125 1.059765,0.02175 1.743881,0.105078 2.050782,0.25 0.041146,0.02474 0.074089,0.04219 0.099609,0.05078 0.329557,0.1375 0.963282,0.220834 1.900391,0.25 1.14492,0.03034 2.377475,-0.02005 3.699218,-0.15039 1.41341,-0.136719 2.930861,-0.169662 4.550781,-0.09961 1.519921,0.09492 2.903648,0.07747 4.150391,-0.05078 1.356769,-0.102735 2.755991,-0.118229 4.199219,-0.04883 1.356769,0.06393 2.657162,0.04648 3.90039,-0.05078 h 0.05078 c 1.007811,-0.05 2.007813,-0.08294 3,-0.09961 -0.02812,-0.65651 -0.111459,-1.22435 -0.25,-1.701172 -0.217318,-0.867837 -0.217318,-1.999611 0,-3.398437 0.206119,-1.206119 0.33789,-2.622788 0.398437,-4.25 0.05586,-1.461717 -0.06042,-2.595444 -0.349609,-3.400391 -0.408463,-1.028254 -0.423958,-2.295704 -0.04883,-3.800781 l 0.04883,-0.04883 C 31.106144,11.286356 31.055754,9.9026299 30.648983,8.2500273 30.19703,6.1304981 30.348203,4.4308854 31.100155,3.150418 h 0.04883 C 31.504191,2.5066686 31.554582,1.7896102 31.299374,1.0000274 30.51539,0.96838673 29.366169,0.85211045 27.850155,0.65041799 26.845468,0.52707388 25.99724,0.50769599 25.299374,0.59182424 23.896852,0.46710219 22.829398,0.56986798 22.100155,0.90041799 21.39124,1.3313872 20.444267,1.5857482 19.270077,1.6738555 17.644926,1.5713093 16.318702,1.2812796 15.299374,0.79885549 h 0.05078 C 14.595073,0.50092762 13.696439,0.43763883 12.656796,0.59963674 12.324946,0.53437334 11.972776,0.50479994 11.596249,0.51174611 Z M 55.35042,-61.399791 v 0 q 1.702734,-0.09883 3.15,0.1 1.219336,0.259375 2.5,0.3 0.0498,1.520703 0.05,3.1 v 0 q 0.04844,2.135156 -0.05,4 -0.101563,1.935156 -0.05,4.1 0.05137,2.11582 -0.3,3.85 -0.34375,1.994141 -0.4,4.25 -0.05586,2.304492 0.2,4.3 0.286133,2.255273 0.75,3.05 v -0.05 q 0.157813,0.432813 0,1.35 -1.093359,-0.02891 -3.1,-0.3 -3.333984,-0.391211 -4.95,0.5 -1.147266,0.636328 -3.35,0.55 -2.262695,-0.08691 -3.65,-0.7 v -0.05 q -1.748633,-0.756055 -4.2,-0.25 h -0.05 q -1.931836,0.489844 -4.1,0.35 -2.485938,-0.161328 -3.25,0 -0.44043,0.1 -1.5,0 0.0584,-1.569727 -0.5,-2.75 v 0.05 q -0.411914,-1.045508 -0.25,-2.65 0.250195,-1.813281 0.6,-4.15 0.369531,-2.502148 0.25,-3.75 v 0 q -0.08457,-1.013086 0.3,-3.3 0.506835,-2.551953 0.05,-5.1 -0.332227,-2.043359 -0.05,-3.6 v 0 q 0.361328,-1.339062 -0.05,-2.85 2.057421,-0.09316 3.3,-0.4 h -0.05 q 1.552929,-0.235938 3.75,0.05 2.34668,0.340625 3.85,0.7 h -0.05 q 1.864453,0.581641 4.35,-0.5 h -0.05 q 1.804492,-0.694531 3.2,-0.45 1.771289,0.406836 3.65,0.25 m -11.754171,29.911537 c -0.391064,0.0072 -0.806837,0.05357 -1.246094,0.138672 -1.487368,0.372917 -3.053256,0.504688 -4.699219,0.398438 -1.3763,-0.09258 -2.277474,-0.108075 -2.701172,-0.04883 -0.321744,0.09701 -0.83724,0.129949 -1.548828,0.09961 0.205469,1.108853 0.02135,2.126303 -0.550781,3.050781 -0.48151,0.91927 -0.564843,2.134377 -0.25,3.648438 0.493099,2.047394 0.526042,3.764454 0.09961,5.15039 -0.258202,1.028385 -0.273697,1.894662 -0.04883,2.59961 h 0.04883 c 0.30994,0.817201 0.465567,1.913568 0.46875,3.277343 -0.02136,0.73425 -0.106046,1.630854 -0.267578,2.72461 -0.233203,1.557811 -0.432813,2.939584 -0.599609,4.148437 -0.107943,1.069661 -0.02461,1.953386 0.25,2.650391 v -0.048828 c 0.372266,0.786848 0.538933,1.703516 0.5,2.75 0.706379,0.066666 1.20638,0.066666 1.5,0 0.509374,-0.107552 1.592709,-0.107552 3.25,0 1.445441,0.093229 2.81172,-0.025001 4.099609,-0.351563 h 0.04883 c 1.634243,-0.337369 3.035418,-0.254036 4.201172,0.25 v 0.050781 c 0.924869,0.408724 2.141929,0.641276 3.650391,0.699219 1.468488,0.057552 2.584766,-0.12461 3.349609,-0.548828 1.077343,-0.59414 2.726565,-0.760807 4.949219,-0.5 1.337759,0.180729 2.370704,0.279557 3.099609,0.298828 0.105209,-0.611458 0.105209,-1.061068 0,-1.349609 v 0.050781 c -0.115048,-0.197107 -0.217758,-0.484534 -0.316406,-0.816406 0.04387,0.00557 0.07288,0.01 0.117187,0.015625 -0.03776,-0.59401 -0.121094,-1.111459 -0.25,-1.550781 -0.217317,-0.867838 -0.217317,-1.999611 0,-3.398438 0.20612,-1.206119 0.339844,-2.622788 0.400391,-4.25 0.05081,-1.329703 -0.04262,-2.385667 -0.277344,-3.171875 0.06737,-0.719945 0.09565,-1.477051 0.07617,-2.279297 -0.0216,-0.906965 -0.01481,-1.772648 0.0039,-2.61914 0.03982,-0.348845 0.05191,-0.71783 0.03516,-1.109375 0.0054,-0.121486 0.0054,-0.250937 0.01172,-0.371094 0.06563,-1.243228 0.08308,-2.576564 0.05078,-4 -1.19e-4,-0.939675 -0.01651,-1.860971 -0.04297,-2.769531 0.03139,-0.05929 0.05798,-0.122096 0.0918,-0.179688 h 0.05078 c 0.354948,-0.643488 0.405338,-1.360547 0.150391,-2.15039 -0.779296,-0.03112 -1.93047,-0.147397 -3.451172,-0.34961 -1.677863,-0.205989 -2.927866,-0.122655 -3.75,0.25 -1.001952,0.609114 -2.469013,0.87461 -4.400391,0.798828 -1.824868,-0.07539 -3.289975,-0.375781 -4.398437,-0.90039 h 0.04883 c -0.517903,-0.204346 -1.102133,-0.299134 -1.753906,-0.28711 z m -32,0 c -0.391064,0.0072 -0.806837,0.05357 -1.246094,0.138672 -0.8520489,0.213628 -1.7306711,0.345962 -2.6347654,0.402344 -0.022261,-0.0014 -0.044116,-0.0025 -0.066406,-0.0039 -1.3763006,-0.09258 -2.2755211,-0.108075 -2.6992187,-0.04883 -0.018273,0.0054 -0.044887,0.0087 -0.064453,0.01367 -0.9019563,-0.04541 -1.6068617,-0.05963 -1.9355468,-0.01367 -0.3217444,0.09701 -0.8372401,0.129949 -1.5488281,0.09961 0.2054685,1.108853 0.3031894,2.282815 -0.1425781,5.4375 0.2104817,3.373434 0.4307939,4.9959 0.4062499,7.486328 -0.024544,2.490427 -0.4363279,3.921486 -0.5136718,5.726562 -0.063167,1.480532 -0.18966582,2.782591 -0.36914065,3.927735 -0.33728716,1.034134 -0.41540273,1.54992 -0.48046874,2.021484 -0.10794257,1.069661 -0.0246091,1.953386 0.25,2.650391 v -0.048828 c 0.37226631,0.786848 0.53893299,1.703516 0.49999999,2.75 0.7063793,0.06667 1.2063803,0.06667 1.5,0 0.1869571,-0.03947 0.4767629,-0.05982 0.9127304,0.0075 0.4359675,0.06728 0.835187,0.05179 1.0853168,-0.0075 0.097928,-0.02068 0.236598,-0.03415 0.3769531,-0.04687 0.2764216,0.01273 0.556066,0.02618 0.875,0.04687 0.6398677,0.04127 1.2601476,0.03318 1.8691406,-0.0078 0.046158,0.0029 0.081822,0.0048 0.1289062,0.0078 1.4454416,0.09323 2.8136728,-0.025 4.1015618,-0.351563 h 0.04883 c 0.284093,-0.05865 0.558189,-0.09959 0.828125,-0.132812 0.488844,0.07181 0.946828,0.198528 1.373046,0.382812 v 0.05078 c 0.924869,0.408724 2.141929,0.641276 3.650391,0.699219 0.550683,0.02158 1.05022,0.01101 1.501953,-0.03516 0.166093,0.01134 0.32225,0.02848 0.496094,0.03516 1.468488,0.05755 2.586719,-0.12461 3.351562,-0.548828 0.560719,-0.309229 1.279426,-0.500487 2.150391,-0.578125 0.257612,0.01919 0.523662,0.04584 0.798828,0.07813 1.33776,0.180729 2.370704,0.279557 3.105898,0.248359 0.735195,-0.0312 1.374161,0.03084 1.843321,0.05047 0.01992,-0.672916 -0.07891,-1.271745 -0.07793,-1.938737 9.77e-4,-0.666992 -0.08236,-1.234831 -0.220898,-1.711653 -0.217318,-0.867838 -0.217318,-1.999611 0,-3.398438 0.206119,-1.206119 0.33789,-2.622788 0.398437,-4.25 0.01278,-0.334405 0.01505,-0.647235 0.0098,-0.947266 0.007,-0.260765 0.0066,-0.500485 -0.0078,-0.703125 v -0.05078 c -0.03971,-0.418234 -0.04411,-1.008777 -0.568359,-2.445312 -0.176477,-0.876881 -0.121212,-1.894451 0.167969,-3.054688 l 0.04883,-0.04883 c 0.30677,-1.114061 0.25638,-2.497788 -0.150391,-4.15039 -0.451953,-2.11953 -0.30078,-3.819142 0.451172,-5.09961 h 0.04883 c 0.355156,-0.643753 0.405547,-1.360812 0.150339,-2.150394 -0.783984,-0.03164 -1.933205,-0.147917 -3.449219,-0.34961 -1.000153,-0.122787 -1.84492,-0.139457 -2.541016,-0.05664 -1.407259,-0.126048 -2.478078,-0.02466 -3.208984,0.30664 -0.706919,0.429756 -1.650734,0.684616 -2.820312,0.773438 -1.629572,-0.101996 -2.959122,-0.391621 -3.980469,-0.875 h 0.05078 c -0.756449,-0.298468 -1.657175,-0.362345 -2.699218,-0.199219 -0.330148,-0.06445 -0.68039,-0.0948 -1.054687,-0.08789 z m -30.001953,0 c -0.391064,0.0072 -0.804883,0.05357 -1.244141,0.138672 -1.487368,0.372917 -3.05521,0.504688 -4.701171,0.398438 -1.376301,-0.09258 -2.275522,-0.108075 -2.699219,-0.04883 -0.36927,0.108853 -1.002996,0.141796 -1.900391,0.09961 0.02331,1.05091 -0.176302,1.800912 -0.599609,2.25 -0.202865,0.376953 -0.253255,1.076564 -0.150391,2.099609 0.159245,1.420832 0.34336,2.670835 0.550781,3.75 0.06725,0.288314 0.123796,0.60337 0.169922,0.94336 0.0016,0.0121 0.0023,0.02689 0.0039,0.03906 0.04338,0.423196 0.07909,0.81956 0.105468,1.185547 0.01737,0.301561 0.02998,0.61978 0.03516,0.951172 -0.01311,1.007944 -0.166601,2.249429 -0.464844,3.732422 -0.282682,1.655987 -0.282682,3.121094 0,4.398437 0.452603,1.699347 0.386718,3.050131 -0.199219,4.050781 l 0.04883,-0.05078 c -0.243229,0.660286 -0.124999,1.594402 0.351563,2.800781 0.556379,1.381249 0.705598,2.664194 0.449218,3.84961 0.54987,0.02591 0.949089,0.01042 1.199219,-0.04883 0.509374,-0.107552 1.59271,-0.107552 3.25,0 1.445441,0.09323 2.813673,-0.025 4.101563,-0.351563 h 0.04883 c 1.634243,-0.337369 3.035417,-0.254036 4.201172,0.25 v 0.05078 c 0.924869,0.408724 2.139975,0.641276 3.648437,0.699219 1.468488,0.05755 2.5867196,-0.12461 3.3515625,-0.548828 1.0773427,-0.59414 2.7265647,-0.760807 4.9492188,-0.5 1.2631498,0.170572 2.2457038,0.269401 2.94921869,0.298828 0.0199219,-0.672916 -0.0789065,-1.271745 -0.0779298,-1.938737 9.767e-4,-0.666992 -0.082357,-1.234831 -0.2208983,-1.711653 -0.2173175,-0.867838 -0.2173175,-1.999611 0,-3.398438 0.2061196,-1.206119 0.33789064,-2.622788 0.39843745,-4.25 0.0127792,-0.334405 0.0150458,-0.647235 0.009766,-0.947266 0.006992,-0.260765 0.006588,-0.500485 -0.007813,-0.703125 v -0.05078 c -0.0736978,-0.776171 0.0425784,-2.041668 0.34960937,-3.798828 0.29531221,-1.465493 0.31080703,-2.932553 0.0488281,-4.40039 -0.27682265,-1.660415 -0.29231747,-3.110028 -0.0488281,-4.34961 v -0.05078 c 0.18804088,-0.739525 0.11041012,-1.555798 -0.23046861,-2.447266 0.24309539,-0.578607 0.25230632,-1.212379 0.0292969,-1.902343 -0.78398359,-0.03164 -1.93320469,-0.147917 -3.44921869,-0.34961 -1.677863,-0.205989 -2.9278654,-0.122655 -3.75,0.25 -1.0019521,0.609114 -2.4690123,0.87461 -4.4003903,0.798828 -1.824868,-0.07539 -3.291929,-0.375781 -4.400391,-0.90039 h 0.05078 c -0.517902,-0.204346 -1.104085,-0.299134 -1.755858,-0.28711 z m 37.382812,-30.224609 c -0.748876,-0.0049 -1.574317,0.166407 -2.476562,0.513672 h 0.05078 c -0.213299,0.09282 -0.424421,0.175552 -0.630859,0.25 -0.707719,-0.01883 -1.398207,-0.06814 -2.070313,-0.150391 -1.046479,-0.137599 -2.015807,-0.0955 -2.908203,0.123047 -0.746485,-0.143552 -1.5842424,-0.28495 -2.5410156,-0.423828 -1.4647125,-0.190625 -2.714715,-0.20612 -3.7499999,-0.04883 h 0.048828 c -0.8283852,0.20456 -1.9272155,0.336331 -3.2988281,0.398438 0.2742184,1.007291 0.2897132,1.958855 0.048828,2.851562 -0.1881511,1.03776 -0.1707032,2.237371 0.050781,3.599609 0.3045564,1.698697 0.2871085,3.398309 -0.050781,5.09961 -0.2563797,1.524608 -0.3552081,2.625391 -0.2988281,3.300781 0.079687,0.8319 -0.00365,2.081903 -0.25000002,3.75 -0.2332031,1.557811 -0.43281287,2.939584 -0.59960937,4.148437 -0.10794256,1.069661 -0.0246091,1.953387 0.25,2.650391 v -0.04883 c 0.37226631,0.786848 0.53893329,1.703517 0.49999999,2.75 0.7063793,0.06667 1.2063803,0.06667 1.5,0 0.186957,-0.03947 0.4767629,-0.05982 0.9127303,0.0075 0.4359673,0.06728 0.8351868,0.05178 1.0853166,-0.0075 0.097928,-0.02068 0.236598,-0.03415 0.3769531,-0.04687 0.2764216,0.01273 0.556066,0.02618 0.875,0.04687 0.6398676,0.04127 1.2601476,0.03318 1.8691406,-0.0078 0.046158,0.0029 0.081822,0.0048 0.1289062,0.0078 1.4454413,0.09323 2.8136733,-0.025 4.1015623,-0.351562 h 0.04883 c 0.284093,-0.05865 0.558189,-0.09959 0.828125,-0.132813 0.488844,0.07181 0.946828,0.198529 1.373046,0.382813 v 0.05078 c 0.924869,0.408723 2.141929,0.641276 3.650391,0.699218 0.550683,0.02158 1.05022,0.01101 1.501953,-0.03516 0.166093,0.01134 0.32225,0.02848 0.496094,0.03516 1.468488,0.05755 2.586719,-0.12461 3.351562,-0.548828 0.560719,-0.309229 1.279426,-0.500487 2.150391,-0.578125 0.257612,0.01919 0.523662,0.04584 0.798828,0.07813 1.337759,0.180729 2.370704,0.279558 3.105899,0.24836 0.735196,-0.0312 1.374162,0.03084 1.843322,0.05047 0.01992,-0.672916 -0.07891,-1.271746 -0.298828,-1.798828 h -0.05078 c -0.423046,-0.963932 -0.55677,-2.180991 -0.40039,-3.650391 v -0.05078 c 0.166536,-1.224478 0.368099,-2.6237 0.601562,-4.199219 0.217708,-1.448436 0.301042,-2.531772 0.25,-3.25 v -0.05078 c -0.0737,-0.776171 0.04258,-2.041668 0.34961,-3.798828 0.295312,-1.465493 0.310807,-2.932553 0.04883,-4.40039 -0.276823,-1.660415 -0.292318,-3.110027 -0.04883,-4.34961 v -0.05078 c 0.191796,-0.754296 0.108463,-1.587631 -0.25,-2.5 -0.830338,-0.13164 -1.597787,-0.147135 -2.300782,-0.04883 h 0.05078 c -0.245888,0.06105 -0.508575,0.109749 -0.785157,0.150391 -0.581193,-0.04985 -1.153169,-0.132475 -1.714843,-0.251953 -0.964843,-0.132554 -2.015236,-0.165496 -3.150391,-0.09961 -1.252473,0.104557 -2.469532,0.02122 -3.650391,-0.25 -0.232584,-0.04076 -0.47303,-0.06087 -0.722656,-0.0625 z M -18.15,-61.099791 q 2.108203,0.258008 4.45,0.1 v 0 q 2.214062,-0.09805 3.7,-0.05 1.5748047,0.05 3.45,0.1 2.1207031,0.104883 3.55,-0.25 h -0.05 q 1.0544922,-0.147461 2.3,0.05 0.53769531,1.368555 0.25,2.5 v 0.05 q -0.36523438,1.859375 0.05,4.35 0.39296875,2.201758 -0.05,4.4 -0.46054688,2.635742 -0.35,3.8 v 0.05 q 0.0765625,1.077344 -0.25,3.25 -0.3501953,2.363281 -0.6,4.2 v 0.05 q -0.2345703,2.204102 0.4,3.65 h 0.05 q 0.32988281,0.790625 0.3,1.8 -1.0552734,-0.04414 -2.95,-0.3 -3.3339844,-0.391211 -4.95,0.5 -1.1472656,0.636328 -3.35,0.55 -2.262695,-0.08691 -3.65,-0.7 v -0.05 q -1.748633,-0.756055 -4.2,-0.25 h -0.05 q -1.931836,0.489844 -4.1,0.35 -2.485938,-0.161328 -3.25,0 -0.375195,0.08887 -1.2,0.05 0.38457,-1.778125 -0.45,-3.85 -0.714844,-1.80957 -0.35,-2.8 l -0.05,0.05 q 0.878906,-1.500977 0.2,-4.05 v 0 q -0.424023,-1.916016 0,-4.4 0.55957,-2.782422 0.45,-4.45 -0.09785,-1.50625 -0.4,-3.7 -0.254297,-1.810742 -0.05,-2.55 0.276563,-0.702148 0.3,-2.35 1.508398,0.09395 3.2,0.35 2.62832,0.385742 4.45,-0.25 v 0 q 1.457617,-0.429102 3.2,-0.2"
       transform="translate(3.5910893e-7,31.999791)" />
    <path
       id="path11890"
       style="display:inline;fill:#ffffff;fill-opacity:1"
       d="m -13.022546,-29.712863 c -0.748874,-0.0049 -1.574319,0.166408 -2.476562,0.513671 h 0.05078 c -0.213274,0.09281 -0.422446,0.175558 -0.628906,0.25 -0.708223,-0.0187 -1.399537,-0.06806 -2.072266,-0.15039 -1.048632,-0.137883 -2.018318,-0.09656 -2.912109,0.123047 -0.745425,-0.143632 -1.582026,-0.285196 -2.53711,-0.423829 -1.464709,-0.190622 -2.714717,-0.206115 -3.75,-0.04883 h 0.04883 c -0.828385,0.20456 -1.927218,0.336328 -3.298829,0.398438 0.274219,1.007289 0.289713,1.958857 0.04883,2.851562 -0.188151,1.037758 -0.170703,2.237374 0.05078,3.59961 0.304556,1.698692 0.287107,3.398313 -0.05078,5.099609 -0.07573,0.450322 -0.134179,0.852511 -0.253907,1.949219 -0.119728,1.096708 0.03242,2.495709 -0.04492,4.300781 -0.07278,1.7059835 -0.223959,3.1885453 -0.451171,4.4492187 -0.149349,1.0679654 -0.149349,1.9361999 0,2.6015625 0.179945,0.6157535 0.280728,1.3483101 0.300781,2.1992187 0.754295,0.033463 1.370575,0.016016 1.849609,-0.050781 h 0.05078 c 0.156357,-0.013367 0.329317,-0.021882 0.503907,-0.03125 -0.0024,0.010315 -0.0034,0.020946 -0.0059,0.03125 1.059762,0.021745 1.743881,0.1050783 2.050782,0.25 0.04115,0.02474 0.07409,0.042191 0.09961,0.050781 0.329557,0.1374997 0.963283,0.2208333 1.900391,0.25 1.144917,0.030339 2.377478,-0.020052 3.699218,-0.1503906 1.413407,-0.1367187 2.930864,-0.1696615 4.550781,-0.099609 1.519918,0.094922 2.90365,0.077473 4.150391,-0.050781 1.356768,-0.1027347 2.7559941,-0.1182292 4.1992188,-0.048828 1.356767,0.063932 2.6571654,0.046484 3.9003906,-0.050781 h 0.050781 c 1.0078095,-0.05 2.0078155,-0.082942 2.99999994,-0.099609 -0.0281249,-0.6565086 -0.11145874,-1.2223975 -0.25000004,-1.6992187 -0.2173169,-0.867836 -0.2173169,-2.0015668 0,-3.4003906 0.2061192,-1.2061164 0.33789082,-2.6227927 0.39843754,-4.25 0.0325407,-0.851522 0.0393182,-1.585117 0.0488281,-2.119141 0.003147,-0.176713 -0.046875,-0.582031 -0.046875,-0.582031 -0.0736976,-0.776169 0.042579,-2.041673 0.34960938,-3.798828 0.29531161,-1.465492 0.31080654,-2.932555 0.0488281,-4.400391 -0.27682209,-1.660411 -0.29231701,-3.110032 -0.0488281,-4.349609 v -0.05078 c 0.19179628,-0.754294 0.10846247,-1.58763 -0.25,-2.5 -0.41516802,-0.06582 -0.81588652,-0.102994 -1.19921872,-0.111328 -0.3833321,-0.0083 -0.750066,0.01335 -1.1015625,0.0625 h 0.050781 c -0.245887,0.06105 -0.508498,0.10975 -0.7851563,0.150391 -0.5811932,-0.05008 -1.1531707,-0.132475 -1.7148437,-0.251953 -0.9648412,-0.13255 -2.015238,-0.165497 -3.1503906,-0.09961 -1.2524706,0.104557 -2.4695355,0.02122 -3.6503915,-0.25 -0.232582,-0.04076 -0.47303,-0.06087 -0.722656,-0.0625 z m 32,0 c -0.748875,-0.0049 -1.574318,0.166407 -2.476562,0.513671 h 0.05078 c -1.657028,0.721094 -3.108597,0.887761 -4.351563,0.5 h 0.05078 c -1.002211,-0.239581 -2.2851594,-0.474089 -3.8496098,-0.701172 -1.464711,-0.190623 -2.7147161,-0.206116 -3.75,-0.04883 h 0.048828 c -0.8283843,0.20456 -1.9272168,0.336328 -3.2988281,0.398438 0.2742182,1.00729 0.2897131,1.958856 0.048828,2.851562 -0.1881509,1.037759 -0.1707028,2.237373 0.050781,3.59961 0.3045561,1.698694 0.2871079,3.398311 -0.050781,5.099609 -0.075727,0.450322 -0.1341782,0.85251 -0.2539063,1.949219 -0.1197281,1.096709 0.032422,2.495707 -0.044922,4.300781 -0.072786,1.7059852 -0.22395828,3.188544 -0.45117182,4.4492187 -0.14934837,1.0679665 -0.14934837,1.9361992 0,2.6015625 0.1799463,0.6157541 0.28072794,1.3483092 0.30078122,2.1992187 0.7542958,0.033463 1.3705744,0.016016 1.8496094,-0.050781 h 0.050781 c 0.8072904,-0.069013 1.8576852,-0.084508 3.1503906,-0.048828 h 0.048828 c 1.2774714,0.065753 2.6941444,0.081248 4.2499998,0.048828 h 0.05078 c 1.619269,-5.207e-4 3.03594,0.034375 4.25,0.1015625 1.183071,0.066146 2.349742,0.099089 3.5,0.099609 1.140883,3.907e-4 2.441278,-0.1507818 3.900391,-0.4511719 1.669267,-0.2768224 3.051044,-0.3427077 4.148437,-0.1992188 0.808853,0.098958 1.74297,0.2152343 2.800781,0.3496094 -0.03776,-0.5940095 -0.121094,-1.1095062 -0.25,-1.5488281 -0.217317,-0.8678369 -0.217317,-2.0015654 0,-3.4003906 0.206119,-1.2061176 0.339841,-2.6227912 0.400391,-4.2499994 0.05586,-1.461717 -0.06042,-2.595445 -0.349609,-3.400391 -0.0036,-0.0091 -0.0082,-0.01819 -0.01172,-0.02734 0.132099,-0.933324 0.186464,-1.94001 0.160156,-3.023437 -0.03437,-1.443227 -0.01693,-2.809508 0.05078,-4.09961 0.06563,-1.243225 0.08307,-2.576565 0.05078,-4 -1.3e-4,-1.052861 -0.01758,-2.085809 -0.05078,-3.099609 -0.853774,-0.02708 -1.68711,-0.127864 -2.5,-0.300781 -0.964842,-0.13255 -2.015236,-0.165498 -3.15039,-0.09961 -1.252472,0.104557 -2.469534,0.02122 -3.650391,-0.25 -0.232584,-0.04076 -0.47303,-0.06087 -0.722656,-0.0625 z m -52.925781,0.451171 c -0.383332,-0.0083 -0.750066,0.01335 -1.101562,0.0625 h 0.05078 c -0.952863,0.23659 -2.136982,0.31992 -3.550781,0.25 -1.250128,-0.03333 -2.399351,-0.06823 -3.449219,-0.101562 -0.990623,-0.03203 -2.225133,-0.01459 -3.701172,0.05078 -1.561194,0.105339 -3.043752,0.0724 -4.449219,-0.09961 -1.161585,-0.152735 -2.227475,-0.08685 -3.199218,0.199218 -1.214451,0.423828 -2.698963,0.507161 -4.451172,0.25 -1.127733,-0.170698 -2.193622,-0.286979 -3.199219,-0.349609 -0.01563,1.098566 -0.116406,1.881512 -0.300781,2.349609 -0.136198,0.492839 -0.118749,1.343623 0.05078,2.550782 0.201433,1.462496 0.335161,2.695053 0.400391,3.699218 0.07305,1.111717 -0.07813,2.596228 -0.451172,4.451172 -0.104648,0.613041 -0.16937,1.20121 0.470703,2.72461 0.640073,1.523399 0.657943,2.772789 0.330078,4.0253902 -0.214453,1.0440085 -0.214453,2.2591176 0,3.6484375 l -0.05078,-0.048828 c 0.231641,1.2541641 0.21419,2.4363303 -0.05078,3.5488281 1.059763,0.021745 1.74388,0.1050782 2.050781,0.25 0.04115,0.02474 0.07409,0.042191 0.09961,0.050781 0.329557,0.1374998 0.963284,0.2208332 1.900391,0.25 1.14492,0.030339 2.377476,-0.020052 3.699219,-0.1503906 1.413407,-0.1367188 2.930861,-0.1696616 4.550781,-0.099609 1.519918,0.094922 2.903649,0.077474 4.15039,-0.050781 1.356769,-0.1027348 2.755993,-0.1182292 4.199219,-0.048828 1.356768,0.063932 2.657164,0.046484 3.900391,-0.050781 h 0.05078 c 1.00781,-0.05 2.007814,-0.082942 3,-0.099609 -0.02813,-0.6565093 -0.111459,-1.222397 -0.25,-1.6992187 -0.217317,-0.8678369 -0.217317,-2.0015654 0,-3.4003906 0.206119,-1.2061176 0.337891,-2.6227907 0.398437,-4.2499999 0.03254,-0.851522 0.04127,-1.585116 0.05078,-2.119141 0.0031,-0.176713 -0.04883,-0.582031 -0.04883,-0.582031 -0.0737,-0.77617 0.04258,-2.041671 0.34961,-3.798828 0.295312,-1.465493 0.310807,-2.932554 0.04883,-4.400391 -0.276822,-1.660413 -0.292317,-3.11003 -0.04883,-4.349609 v -0.05078 c 0.191796,-0.754295 0.108463,-1.58763 -0.25,-2.5 -0.415169,-0.06582 -0.815886,-0.102994 -1.199219,-0.111328 z"
       transform="translate(31.999653,95.999795)" />
    <path
       id="path12032"
       style="display:inline;fill:#ffffff;fill-opacity:1"
       d="m -18.405704,0.51153734 c -0.391064,0.007214 -0.804883,0.0535645 -1.24414,0.13867188 -1.487369,0.37291688 -3.055211,0.50468738 -4.701172,0.39843748 -1.376301,-0.0925799 -2.275521,-0.10807475 -2.699219,-0.0488281 -0.369271,0.1088499 -1.002995,0.1417963 -1.90039,0.0996094 0.02331,1.0509102 -0.176303,1.8009117 -0.59961,2.2499999 -0.20287,0.376953 -0.253255,1.0765637 -0.15039,2.0996094 0.159244,1.4208319 0.343359,2.6708344 0.550781,3.75 0.269009,1.1532547 0.367838,2.7210957 0.298828,4.7011717 -0.06562,1.817837 0.03516,3.199611 0.300781,4.148438 0.361198,1.247394 0.378646,2.497397 0.05078,3.75 -0.214452,1.04401 -0.214452,2.261069 0,3.65039 l -0.05078,-0.04883 c 0.231641,1.254166 0.214193,2.436329 -0.05078,3.548828 1.059764,0.02174 1.74388,0.105078 2.050781,0.25 0.04115,0.02474 0.07409,0.04218 0.09961,0.05078 0.329557,0.1375 0.963283,0.22083 1.900391,0.25 1.144921,0.03034 2.377475,-0.02005 3.699219,-0.15039 1.413409,-0.13672 2.930861,-0.16966 4.550781,-0.09961 1.519921,0.09492 2.903647,0.07747 4.150391,-0.05078 0.343048,-0.02598 0.68836,-0.04623 1.017578,-0.285156 0.383145,-0.06048 0.775563,-0.130842 1.1835935,-0.214844 1.669269,-0.27682 3.0510426,-0.342707 4.1484375,-0.199219 0.8088532,0.09896 1.7429696,0.215235 2.8007812,0.34961 -0.037761,-0.594011 -0.1210941,-1.111459 -0.25,-1.550781 -0.2173178,-0.867839 -0.2173178,-1.999611 0,-3.398438 0.2061198,-1.206119 0.3398437,-2.622789 0.4003906,-4.25 0.055859,-1.461717 -0.060417,-2.595443 -0.3496093,-3.400391 -0.4084629,-1.028253 -0.4259109,-2.295704 -0.050781,-3.800781 l 0.050781,-0.04883 C -2.8919022,11.286147 -2.9422929,9.9024212 -3.3490632,8.2498185 -3.801016,6.1302894 -3.651797,4.4306766 -2.8998444,3.1502092 h 0.050781 c 0.3549477,-0.6434888 0.4053384,-1.3605472 0.1503906,-2.15039061 -0.7792959,-0.03112 -1.93047,-0.14739625 -3.4511718,-0.34960937 -1.677863,-0.20598913 -2.9278655,-0.12265563 -3.75,0.24999999 C -10.606763,1.3299649 -11.550579,1.5848248 -12.720157,1.6736467 -14.349729,1.5716512 -15.679279,1.2820261 -16.700626,0.79864671 h 0.05078 C -17.167748,0.59430109 -17.75393,0.4995134 -18.405704,0.51153734 Z m 0,-32.00029034 c -0.391063,0.0072 -0.804884,0.05356 -1.24414,0.138672 -1.487368,0.372917 -3.055213,0.504688 -4.701172,0.398438 -1.3763,-0.09258 -2.275521,-0.108075 -2.699219,-0.04883 -0.369271,0.108849 -1.002996,0.141796 -1.90039,0.09961 0.0233,1.050909 -0.176303,1.800912 -0.59961,2.25 -0.20287,0.376953 -0.253255,1.076565 -0.15039,2.099609 0.159243,1.420831 0.343359,2.670836 0.550781,3.75 0.08293,0.355539 0.14466,0.764942 0.195312,1.199219 0.03269,0.334422 0.0625,0.664025 0.08399,0.960938 0.01903,0.330498 0.03076,0.676634 0.03516,1.042968 -0.02083,0.992958 -0.17496,2.206995 -0.464844,3.648438 -0.282682,1.655985 -0.282682,3.121096 0,4.398437 0.452604,1.699346 0.386718,3.050132 -0.199219,4.050781 l 0.04883,-0.05078 c -0.243229,0.660285 -0.125001,1.594404 0.351562,2.800781 0.556378,1.381248 0.705599,2.664195 0.449219,3.84961 0.549868,0.02591 0.94909,0.01042 1.199218,-0.04883 0.509375,-0.107552 1.592712,-0.107552 3.25,0 1.445441,0.09323 2.813674,-0.025 4.101563,-0.351563 h 0.04883 c 0.492852,-0.101743 0.961867,-0.160329 1.412109,-0.185547 1.021398,0.0524 1.606193,0.292656 2.746094,0.765625 1.608651,0.379219 2.572189,0.494653 3.097656,0.482422 0.359439,-0.0084 0.776837,-0.116878 1.802735,-0.419922 1.3227733,-0.568668 2.8844592,-0.950416 5.0917966,-0.691406 1.3377581,0.180729 2.3707049,0.279557 3.0996093,0.298828 0.1052085,-0.611457 0.1052085,-1.061068 -0.026909,-1.292168 -0.1321172,-0.231101 -0.1126032,-0.538938 -0.172322,-0.80744 -0.037761,-0.594011 -0.1210942,-1.11146 -0.25,-1.550781 -0.2173176,-0.867839 -0.2173176,-1.999612 0,-3.398438 0.2061196,-1.206118 0.3398438,-2.622791 0.4003906,-4.25 0.050814,-1.329701 -0.042677,-2.385609 -0.2773437,-3.171875 0.067008,-0.720223 0.095645,-1.477251 0.076172,-2.279297 -0.021366,-0.897063 -0.016348,-1.754005 0.00195,-2.591797 0.042482,-0.358018 0.054607,-0.737333 0.037109,-1.140625 0.00538,-0.120184 0.00548,-0.248297 0.011719,-0.367187 0.065627,-1.243227 0.083074,-2.576565 0.050781,-4 -1.187e-4,-0.939675 -0.016377,-1.861038 -0.042969,-2.769531 0.031382,-0.05929 0.057976,-0.122096 0.2777526,-0.472636 0.2197765,-0.35054 0.2701673,-1.0676 0.01522,-1.857442 -0.7792951,-0.03112 -1.9304715,-0.147397 -3.4511718,-0.34961 -1.6778613,-0.205989 -2.9278663,-0.122655 -3.75,0.25 -0.7069176,0.429756 -1.6507356,0.684616 -2.8203126,0.773438 -1.62957,-0.101996 -2.959123,-0.391621 -3.980469,-0.875 h 0.05078 c -0.517904,-0.204346 -1.104086,-0.299134 -1.75586,-0.28711 z m 5.382813,-30.224609 c -0.748876,-0.0049 -1.574317,0.166407 -2.476563,0.513672 h 0.05078 c -0.192514,0.08378 -0.381927,0.16162 -0.56836,0.251953 -0.729862,-0.01745 -1.440713,-0.06764 -2.132812,-0.152344 -1.161588,-0.152734 -2.227475,-0.08685 -3.199219,0.199219 -1.214452,0.423828 -2.698961,0.507161 -4.451172,0.25 -1.127734,-0.1707 -2.193621,-0.286979 -3.199219,-0.349609 -0.01563,1.098567 -0.116406,1.881511 -0.300781,2.349609 -0.136198,0.492839 -0.118749,1.343622 0.05078,2.550781 0.201433,1.462499 0.335161,2.695053 0.400391,3.699219 0.07305,1.111718 -0.07813,2.596226 -0.451172,4.451172 -0.282682,1.655987 -0.282682,3.121095 0,4.398437 0.452604,1.699348 0.386718,3.050132 -0.199219,4.050782 l 0.04883,-0.05078 c -0.243229,0.660285 -0.125001,1.594402 0.351562,2.800781 0.556379,1.381248 0.705599,2.664194 0.449219,3.849609 0.549869,0.02591 0.949089,0.01042 1.199218,-0.04883 0.509375,-0.107552 1.59271,-0.107552 3.25,0 1.445442,0.09323 2.813673,-0.025 4.101563,-0.351562 h 0.04883 c 0.492852,-0.101744 0.961866,-0.160329 1.412109,-0.185547 1.021399,0.0524 1.606117,0.291418 2.746019,0.764387 1.608652,0.379219 2.572263,0.495891 3.097731,0.48366 0.359439,-0.0084 0.775958,-0.116781 1.801857,-0.419825 1.3227749,-0.568669 2.885335,-0.950514 5.0926746,-0.691504 1.3377594,0.18073 2.3707041,0.279558 3.0996093,0.298829 0.1052086,-0.611458 0.1052086,-1.061068 0,-1.34961 v 0.05078 c -0.3092443,-0.529817 -0.5592448,-1.547267 -0.7499999,-3.050781 -0.1705729,-1.330337 -0.2364588,-2.762502 -0.1992188,-4.298828 0.0375,-1.503905 0.1712242,-2.920574 0.4003906,-4.25 0.2342468,-1.156119 0.3330751,-2.441017 0.2988282,-3.851563 -0.034375,-1.443227 -0.016928,-2.809506 0.050781,-4.099609 0.065627,-1.243228 0.083074,-2.576564 0.050781,-4 -1.33e-4,-1.052864 -0.017581,-2.085808 -0.050781,-3.099609 -0.8537751,-0.02708 -1.6871101,-0.127865 -2.5,-0.300781 -0.964843,-0.13255 -2.0152357,-0.1655 -3.1503906,-0.09961 -1.2524724,0.104557 -2.4695324,0.02122 -3.6503904,-0.25 -0.232585,-0.04076 -0.473031,-0.06087 -0.722656,-0.0625 z"
       transform="translate(96.000003,32.00029)" />
    <path
       id="path12218"
       style="display:inline;fill:#ffffff;fill-opacity:1"
       d="m 82.977108,66.286928 c -0.748875,-0.0049 -1.574318,0.166407 -2.649161,0.457291 -1.074843,0.290883 -1.785696,0.240693 -2.477794,0.15599 -1.161584,-0.152735 -2.227477,-0.08685 -3.199219,0.199218 -1.21445,0.423828 -2.698965,0.507161 -4.451172,0.25 -1.127732,-0.170697 -2.193623,-0.286979 -3.199219,-0.349609 -0.01563,1.098565 -0.116406,1.881513 -0.300781,2.349609 -0.136198,0.492839 -0.118747,1.343624 0.05078,2.550782 0.201433,1.462494 0.335161,2.695054 0.400391,3.699218 0.07305,1.111716 -0.09162,2.593567 -0.451172,4.451172 0.400368,1.543146 0.619525,2.222188 1.029297,3.783203 0.01738,0.654231 -0.0569,1.309187 -0.228516,1.964844 -0.214451,1.044009 -0.214451,2.261071 0,3.650391 l -0.05078,-0.04883 c 0.231641,1.254164 0.214192,2.43633 -0.05078,3.548828 1.059763,0.02174 1.74388,0.105078 2.050781,0.25 0.04115,0.02474 0.07409,0.04218 0.09961,0.05078 0.329557,0.1375 0.963284,0.22083 1.900391,0.25 1.14492,0.03034 2.377476,-0.02005 3.699219,-0.150391 1.413407,-0.13672 2.930863,-0.169659 4.550781,-0.09961 1.51992,0.09492 2.903648,0.07747 4.150391,-0.05078 0.343047,-0.02598 0.68836,-0.04623 1.017578,-0.285157 0.383144,-0.06048 0.775564,-0.130841 1.183593,-0.214843 1.669268,-0.27682 3.051044,-0.342707 4.148438,-0.199219 0.808852,0.09896 1.742971,0.215234 2.800781,0.349609 -0.03776,-0.59401 -0.121094,-1.111459 -0.25,-1.550781 -0.217318,-0.867838 -0.217318,-1.999612 0,-3.398437 0.20612,-1.206118 0.339844,-2.622791 0.400391,-4.25 0.0508,-1.329419 -0.04279,-2.383708 -0.277344,-3.169922 0.06715,-0.7208 0.09566,-1.478479 0.07617,-2.28125 -0.03438,-1.443226 -0.01693,-2.809508 0.05078,-4.09961 0.06563,-1.243226 0.08307,-2.576565 0.05078,-4 -1.33e-4,-1.052862 -0.01758,-2.085809 -0.05078,-3.099609 -0.853774,-0.02708 -1.687111,-0.127865 -2.5,-0.300781 -0.964842,-0.13255 -2.015237,-0.165499 -3.15039,-0.09961 -1.252471,0.104557 -2.469534,0.02122 -3.650391,-0.25 -0.232585,-0.04076 -0.473031,-0.06087 -0.722656,-0.0625 z"
       sodipodi:nodetypes="scccccccccccccccccccccccccccccccccccss" />
  </g>
</svg>
