<?xml version="1.0" encoding="UTF-8" standalone="no"?>
<!-- Created with Inkscape (http://www.inkscape.org/) -->

<svg
   width="64"
   height="64"
   viewBox="0 0 16.933333 16.933333"
   version="1.1"
   id="svg3355"
   inkscape:version="1.2.2 (732a01da63, 2022-12-09)"
   sodipodi:docname="paper.svg"
   inkscape:export-filename="grid_sides.png"
   inkscape:export-xdpi="96"
   inkscape:export-ydpi="96"
   xmlns:inkscape="http://www.inkscape.org/namespaces/inkscape"
   xmlns:sodipodi="http://sodipodi.sourceforge.net/DTD/sodipodi-0.dtd"
   xmlns="http://www.w3.org/2000/svg"
   xmlns:svg="http://www.w3.org/2000/svg">
  <sodipodi:namedview
     id="namedview3357"
     pagecolor="#ffffff"
     bordercolor="#666666"
     borderopacity="1.0"
     inkscape:showpageshadow="2"
     inkscape:pageopacity="0.0"
     inkscape:pagecheckerboard="true"
     inkscape:deskcolor="#d1d1d1"
     inkscape:document-units="px"
     showgrid="false"
     inkscape:zoom="9.5144352"
     inkscape:cx="33.580553"
     inkscape:cy="39.098485"
     inkscape:window-width="1920"
     inkscape:window-height="1009"
     inkscape:window-x="-8"
     inkscape:window-y="-8"
     inkscape:window-maximized="1"
     inkscape:current-layer="g5830" />
  <defs
     id="defs3352">
    <inkscape:path-effect
       effect="fill_between_many"
       method="originald"
       linkedpaths="#path5272,0,1"
       id="path-effect5425" />
    <inkscape:path-effect
       effect="fill_between_many"
       method="originald"
       linkedpaths="#path5272,0,1"
       id="path-effect5525" />
  </defs>
  <g
     id="g5830"
     style="display:inline">
    <path
       d="m 14.342739,0.77558875 c 0.422618,-0.0223688 0.696987,-0.0887485 0.823108,-0.1991388 0.07785,-0.0228525 0.409755,0.0169748 0.995694,0.11948328 -0.004,0.29566577 0.0049,0.57888547 0.02655,0.84965897 v 0.013276 c 0.03536,0.3386052 0.07077,0.6572272 0.106208,0.9558663 v 0.013276 c 0.03751,0.2798315 0.0021,0.6117295 -0.106208,0.995694 -0.120934,0.4625483 -0.151912,0.8962283 -0.09293,1.3010401 v 0 c 0.05759,0.3395732 0.04433,0.6493446 -0.03983,0.9293144 v 0.013276 c -0.09442,0.363774 -0.09885,0.7620516 -0.01328,1.1948328 v 0 c 0.08754,0.3699625 0.13179,0.6753086 0.132758,0.9160383 v 1.0886255 c -8.85e-4,0.4377252 -0.03629,0.7740486 -0.106207,1.00897 v 0.013277 c -0.06347,0.2800394 -0.0856,0.6340624 -0.06638,1.0620734 v 0 c 0.02651,0.413974 0.05749,0.798975 0.09293,1.155005 v 0 c 0.04252,0.341371 0.05137,0.690971 0.02655,1.048798 -0.02904,0.432712 0.01521,0.822138 0.132759,1.168281 v 0 c 0.08197,0.256011 0.1041,0.450724 0.06638,0.58414 v 0.01328 c -0.05075,0.170929 -0.09501,0.533804 -0.13276,1.088626 -0.273918,-0.041 -0.543862,-0.07198 -0.809831,-0.09293 -0.368441,-0.02962 -0.753443,0.0058 -1.155004,0.106207 l -0.01328,0.01328 c -0.319903,0.09283 -0.634099,0.114954 -0.942591,0.06638 h -0.01328 c -0.340506,-0.04474 -0.694531,-0.07129 -1.062075,-0.07965 v 0 c -0.364292,-8.85e-4 -0.758144,0.02567 -1.181556,0.07965 v 0 c -0.358242,0.05549 -0.668014,0.04222 -0.929314,-0.03983 v 0 c -0.3141282,-0.09604 -0.6637274,-0.149147 -1.0487983,-0.159311 -0.3575855,-0.0087 -0.7381618,0.0222 -1.1417291,0.09293 v 0 c -0.3481472,0.07838 -0.6756199,0.109352 -0.982418,0.09293 h -0.013276 c -0.339573,-0.0089 -0.7068735,0.02202 -1.1019013,0.09293 v 0 c -0.344517,0.07737 -0.6808404,0.0995 -1.0089699,0.06638 -0.3643617,-0.03606 -0.758214,-0.04933 -1.1815569,-0.03983 -0.3837915,0.0093 -0.7466668,-0.01722 -1.0886254,-0.07965 v 0 c -0.3739039,-0.05511 -0.621721,-0.08166 -0.7434515,-0.07965 -0.00636,-3.54e-4 -0.015213,-3.54e-4 -0.026552,0 -0.090338,0.0075 -0.4310871,0.0075 -1.02224579,0 -0.0162492,-0.194714 0.0147279,-0.402702 0.0929313,-0.623968 0.15899984,-0.397378 0.18997689,-0.786805 0.0929313,-1.168281 -0.0606747,-0.29124 -0.0828016,-0.631988 -0.0663798,-1.022246 v 0 c 0.0287994,-0.436445 -0.006603,-0.830297 -0.10620743,-1.181557 -0.0619201,-0.288405 -0.0353675,-0.629154 0.0796555,-1.022246 V 11.1441 C 0.97295444,10.649036 1.0127822,10.233057 0.93406007,9.8961452 0.87908948,9.6109208 0.83483664,9.332127 0.80130094,9.0597628 0.77544087,8.7994995 0.7665897,8.4587509 0.77474943,8.0375169 0.7843934,7.6199824 0.81979708,7.2217048 0.88095686,6.8426842 H 0.86768111 C 0.94954942,6.4389787 0.96725076,6.0451264 0.92078512,5.6611273 0.87663564,5.3161263 0.84123297,4.9842284 0.8145777,4.6654333 0.78691929,4.3382718 0.7293907,3.9975232 0.6419908,3.6431875 0.58366641,3.3466919 0.57924182,3.001518 0.62871505,2.6076657 0.68174982,2.1876418 0.71715149,1.9088475 0.73492238,1.7712829 0.75013495,1.663658 0.75898512,1.3494612 0.76147388,0.82869247 1.0600438,0.87719829 1.3476887,0.8462212 1.6244086,0.73576119 v 0.0132758 C 1.9277151,0.6361224 2.2109347,0.5785934 2.4740674,0.57644995 c 0.2916553,9.3821e-4 0.6368293,0.0274898 1.0355218,0.0796555 0.4225823,0.0622653 0.8164346,0.11094391 1.1815568,0.14603519 0.389427,0.036924 0.778854,0.0147971 1.168281,-0.0663798 0.3426501,-0.0535185 0.6789734,-0.0756454 1.0089699,-0.0663798 0.3562717,0.008881 0.7147215,0.02216 1.0753495,0.0398272 0.3672659,0.0267251 0.7345663,0.0355753 1.1019014,0.0265515 v 0 c 0.3721751,1.0366e-4 0.6863718,-0.008751 0.9425902,-0.0265515 0.242597,-0.005008 0.552369,0.0348146 0.929314,0.11948328 0.463552,0.11820398 0.937059,0.13147993 1.420524,0.0398283 0.428598,-0.06956 0.769346,-0.0961125 1.022246,-0.0796555 h 0.01328 c 0.293072,0.0186346 0.616119,0.014209 0.969142,-0.0132758"
       style="display:inline;fill:#ffffff;fill-opacity:1;stroke-width:1.00353"
       id="path5802" />
    <path
       id="path5735"
       style="display:inline;fill:#d1d7db;fill-opacity:1"
       d="M 67.3999 58.350375 C 66.190916 58.342275 64.890523 58.592302 63.49951 59.100375 C 62.535709 59.474983 61.535707 59.474983 60.49951 59.100375 C 60.348729 59.035405 60.182061 59.002455 59.99951 59.000765 C 59.727505 58.994065 59.494952 59.077436 59.300291 59.250765 C 59.103156 59.468604 59.002375 59.718605 58.99951 60.000765 C 58.96396 62.598289 58.913569 64.131234 58.849119 64.600375 C 58.782579 65.115609 58.650808 66.166002 58.450682 67.750765 C 58.238312 69.490217 58.271254 71.023163 58.550291 72.350375 C 58.854458 73.582274 59.054067 74.764439 59.1499 75.899203 C 59.24951 77.131884 59.383234 78.416782 59.550291 79.750765 C 59.708624 81.004279 59.658233 82.287225 59.3999 83.600375 L 59.3999 83.649203 C 59.171776 85.15519 59.038051 86.738527 58.99951 88.399203 C 58.9637 90.099592 58.996619 91.483318 59.099119 92.549593 C 59.239354 93.623681 59.423469 94.724465 59.6499 95.850375 C 59.853285 96.8479 59.719559 98.080454 59.24951 99.549593 C 58.685708 101.42511 58.569432 103.04139 58.8999 104.3992 L 58.8999 104.44998 C 59.222947 105.58683 59.339223 106.85428 59.24951 108.25077 L 59.24951 108.29959 C 59.17933 109.96938 59.280111 111.43645 59.550291 112.69998 C 59.81813 113.76326 59.734795 114.84659 59.300291 115.94998 C 58.754718 117.44464 58.653937 118.82837 58.99951 120.10037 C 59.01956 120.33305 59.102897 120.53266 59.24951 120.69998 C 59.434274 120.86469 59.633884 120.96548 59.849119 121.00076 C 59.902889 121.00024 59.953283 121.00024 59.99951 121.00076 C 62.773856 121.03546 64.37464 121.03546 64.800291 121.00076 C 65.231019 121.01676 66.046907 121.11559 67.24951 121.29959 L 67.200681 121.25076 C 68.612789 121.51561 70.112792 121.63188 71.700681 121.60037 C 73.206149 121.56947 74.60537 121.61987 75.8999 121.75076 C 77.323076 121.89177 78.772688 121.79098 80.24951 121.44998 C 81.585576 121.21886 82.835579 121.11808 83.999509 121.1492 C 85.31305 121.2181 86.696777 121.08626 88.1499 120.75076 C 89.529847 120.51718 90.83024 120.41639 92.050291 120.44998 C 93.299898 120.47838 94.433625 120.64505 95.450681 120.94998 L 95.3999 120.94998 C 96.642998 121.37225 98.110057 121.45558 99.800291 121.19998 C 101.29612 121.00441 102.67985 120.90363 103.95068 120.8992 C 105.25784 120.9341 106.52334 121.03485 107.74951 121.19998 C 109.19612 121.41443 110.66318 121.29817 112.1499 120.85037 C 113.43753 120.52862 114.67009 120.41236 115.84912 120.50076 C 117.08558 120.59036 118.35303 120.73957 119.6499 120.94998 C 119.75094 120.97878 119.85172 120.99626 119.95068 121.00076 C 120.22711 121.01716 120.45967 120.93386 120.6499 120.75076 C 120.87034 120.56171 120.98662 120.3272 120.99951 120.04959 C 121.12243 117.56835 121.2736 115.98501 121.45068 115.29959 L 121.45068 115.35037 C 121.77529 114.55337 121.69195 113.40219 121.20068 111.8992 L 121.20068 111.85037 C 120.84326 110.78736 120.70954 109.58774 120.80029 108.25077 C 120.90615 106.77395 120.87318 105.33983 120.70068 103.94998 C 120.56826 102.6315 120.45003 101.21483 120.34912 99.699984 L 120.34912 99.649203 C 120.28952 98.289308 120.35729 97.157535 120.55029 96.250765 L 120.55029 96.299593 C 120.85394 95.284359 121.00316 93.834747 120.99951 91.949984 L 120.99951 87.850375 C 121.00251 86.828761 120.82068 85.545816 120.45068 84.000765 L 120.45068 83.949984 C 120.2081 82.673292 120.2236 81.489176 120.49951 80.399203 C 120.88258 79.086834 120.93297 77.637222 120.6499 76.049593 L 120.70068 76.049593 C 120.52281 74.774074 120.62161 73.407796 120.99951 71.949984 C 121.48844 70.207277 121.63961 68.689827 121.45068 67.399203 C 121.31826 66.298032 121.18454 65.115869 121.05029 63.850375 C 120.95319 62.64048 120.93571 61.373029 120.99951 60.049594 C 121.01321 59.816261 120.94729 59.599203 120.80029 59.399203 C 120.79529 59.381233 120.77751 59.348294 120.74951 59.299594 C 120.70781 59.282924 120.65742 59.249984 120.59912 59.199984 C 120.45433 59.076807 120.27216 59.010921 120.05029 59.000765 C 116.47581 58.335141 114.45836 58.251807 113.99951 58.750765 C 113.67842 58.932536 113.01175 59.048812 111.99951 59.100375 L 111.95068 59.100375 C 110.72373 59.195945 109.59 59.211442 108.55029 59.149203 C 107.45589 59.080063 106.00628 59.198296 104.20068 59.500765 C 102.66331 59.787223 101.16331 59.736832 99.700681 59.350375 L 99.6499 59.350375 C 97.996256 58.975375 96.645472 58.808708 95.599119 58.850375 L 95.550291 58.850375 C 94.621386 58.916265 93.48766 58.949204 92.1499 58.949984 L 92.099119 58.949984 C 90.782453 58.981754 89.449117 58.948775 88.099119 58.850375 C 86.72399 58.783575 85.357711 58.733187 83.999509 58.699984 C 82.616959 58.668344 81.200289 58.769126 79.74951 59.000765 C 78.482844 59.261572 77.217347 59.327458 75.950681 59.199984 C 74.599511 59.06613 73.147945 58.882016 71.599119 58.649203 L 71.550291 58.649203 C 69.951855 58.445557 68.568128 58.346729 67.3999 58.350375 z M 115.59912 60.32889 C 116.17783 60.352864 117.29561 60.510041 118.95068 60.799594 C 118.93568 61.913133 118.96859 62.980974 119.05029 64.000765 L 119.05029 64.049594 C 119.18349 65.324853 119.31721 66.524465 119.45068 67.649203 L 119.45068 67.699984 C 119.59195 68.753889 119.45829 70.003892 119.05029 71.449984 C 118.59482 73.192039 118.47855 74.825767 118.70068 76.350375 C 118.91761 77.629279 118.86722 78.795949 118.55029 79.850375 L 118.55029 79.899203 C 118.19469 81.269253 118.17724 82.769256 118.49951 84.399203 C 118.8292 85.79256 118.99586 86.943735 118.99951 87.850375 L 118.99951 89.076937 L 90.974119 89.076937 L 90.974119 60.949984 C 91.366209 60.951167 91.757789 60.959616 92.1499 60.949984 C 93.551592 60.950375 94.735708 60.917435 95.700681 60.850375 C 96.614352 60.831495 97.781022 60.980714 99.200681 61.299594 C 100.94651 61.744775 102.72946 61.795166 104.55029 61.449984 C 106.16448 61.188005 107.44743 61.087224 108.3999 61.149203 L 108.45068 61.149203 C 109.55445 61.219383 110.76956 61.203895 112.09912 61.100375 C 113.69079 61.016125 114.72568 60.766129 115.20068 60.350375 C 115.27399 60.328857 115.40622 60.320899 115.59912 60.32889 z M 67.3999 60.350375 C 68.498336 60.353875 69.798729 60.452736 71.300291 60.649203 C 72.891826 60.883708 74.374381 61.067823 75.74951 61.199984 C 77.216175 61.339047 78.683235 61.255714 80.1499 60.949984 C 81.440394 60.748421 82.707844 60.665088 83.950681 60.699984 C 85.292477 60.733444 86.641308 60.783835 87.999509 60.850375 C 88.324167 60.873999 88.649447 60.881043 88.974119 60.89725 L 88.974119 89.076937 L 60.99951 89.076937 C 61.001267 88.858739 60.995034 88.681042 60.99951 88.449984 C 61.03584 86.87746 61.169561 85.377457 61.3999 83.949984 L 61.349119 83.949984 C 61.657452 82.429543 61.725291 80.946988 61.550291 79.500765 C 61.384015 78.201418 61.250291 76.951415 61.1499 75.750765 C 61.045733 74.518606 60.828676 73.233707 60.49951 71.899203 C 60.279849 70.782537 60.264354 69.484097 60.450682 68.000765 C 60.65042 66.418866 60.782192 65.368473 60.849119 64.850375 C 60.906409 64.445036 60.941312 63.26092 60.950682 61.299594 C 62.075159 61.482275 63.158496 61.366004 64.200682 60.949984 L 64.200682 61.000765 C 65.342998 60.575505 66.408886 60.358448 67.3999 60.350375 z M 61.028807 91.076937 L 88.974119 91.076937 L 88.974119 118.62186 C 88.588302 118.67106 88.197962 118.72989 87.800291 118.79959 C 86.489094 119.09477 85.254587 119.21105 84.099119 119.1492 L 84.050291 119.1492 C 82.771386 119.1155 81.38766 119.23367 79.8999 119.50077 C 78.602375 119.79217 77.334925 119.8755 76.099119 119.75077 C 74.726855 119.61496 73.2443 119.56456 71.6499 119.60037 C 70.204459 119.63547 68.838181 119.53469 67.550291 119.29959 C 66.142089 119.09204 65.207972 118.99322 64.74951 119.00077 C 64.72555 118.99977 64.69261 118.99977 64.6499 119.00077 C 64.309666 119.02906 63.026721 119.02906 60.800291 119.00077 C 60.739091 118.26744 60.855371 117.48253 61.1499 116.6492 C 61.748728 115.15259 61.865004 113.68748 61.49951 112.25077 C 61.270995 111.1539 61.187661 109.86899 61.24951 108.3992 C 61.357973 106.75545 61.224249 105.2729 60.849119 103.94998 C 60.615916 102.86378 60.716698 101.58084 61.1499 100.10037 L 61.1499 100.1492 C 61.746385 98.284752 61.895604 96.718863 61.599119 95.449984 C 61.392088 94.375766 61.225421 93.325373 61.099119 92.299593 C 61.064037 91.946539 61.047265 91.508642 61.028807 91.076937 z M 90.974119 91.076937 L 118.99951 91.076937 L 118.99951 91.949984 C 118.99651 93.59855 118.86245 94.866001 118.59912 95.750765 L 118.59912 95.799593 C 118.36006 96.854279 118.27673 98.187616 118.34912 99.799593 C 118.44902 101.3587 118.56721 102.80831 118.70068 104.1492 C 118.86083 105.43488 118.89378 106.75273 118.80029 108.10037 C 118.69092 109.73006 118.85759 111.19712 119.30029 112.50077 C 119.60902 113.46495 119.69235 114.19751 119.55029 114.69998 L 119.55029 114.75077 C 119.35914 115.39451 119.19248 116.7608 119.05029 118.85037 C 118.01865 118.69594 117.0012 118.57967 115.99951 118.50077 C 114.61188 118.38918 113.16227 118.5209 111.6499 118.8992 L 111.59912 118.94998 C 110.3943 119.29959 109.21214 119.38292 108.05029 119.19998 L 107.99951 119.19998 C 106.71709 119.03149 105.38376 118.93071 103.99951 118.8992 C 102.6275 118.8962 101.14495 118.99668 99.550291 119.19998 C 98.201073 119.40897 97.034405 119.35858 96.050291 119.04959 C 94.867219 118.68787 93.549378 118.48826 92.099119 118.44998 C 91.730746 118.44093 91.355448 118.44639 90.974119 118.45975 L 90.974119 91.076937 z "
       transform="matrix(0.26458333,0,0,0.26458333,-15.340019,-15.367223)" />
  </g>
  <g
     id="g5844"
     style="display:none"
     transform="translate(-12.700081)">
    <path
       id="path5840"
       style="display:inline;fill:#ffffff;fill-opacity:1;stroke-width:1.00353"
       d="m 27.906904,-12.128975 c -0.01767,8.98e-4 -0.03109,0.0028 -0.04082,0.0057 -0.126121,0.11039 -0.400588,0.176586 -0.823205,0.198954 -0.353023,0.02748 -0.676379,0.03207 -0.96945,0.01344 h -0.01292 c -0.2529,-0.01646 -0.593563,0.01002 -1.02216,0.07958 -0.483465,0.09165 -0.957034,0.07841 -1.420585,-0.03979 -0.376945,-0.08467 -0.687063,-0.124897 -0.929659,-0.119889 -0.256219,0.0178 -0.570404,0.02698 -0.942578,0.02687 -0.367335,0.009 -0.734476,-1.47e-4 -1.101742,-0.02687 -0.360628,-0.01767 -0.719115,-0.03091 -1.075387,-0.03979 -0.329996,-0.0093 -0.666074,0.01314 -1.008723,0.06666 -0.389427,0.08118 -0.778978,0.103069 -1.168405,0.06614 -0.365121,-0.03509 -0.759258,-0.08346 -1.18184,-0.145727 -0.398692,-0.05217 -0.743423,-0.07864 -1.035078,-0.07958 -0.263133,0.0021 -0.546772,0.05917 -0.850078,0.172083 v -0.01292 c -0.276719,0.11046 -0.56391,0.141523 -0.862479,0.09302 -0.0025,0.520768 -0.01166,0.834954 -0.02687,0.942578 -0.01777,0.137565 -0.0529,0.416101 -0.105937,0.836125 -0.04947,0.3938519 -0.0454,0.7391004 0.01292,1.0355957 0.0874,0.3543353 0.144941,0.6949986 0.1726,1.0221598 0.02665,0.3187947 0.0623,0.6508041 0.106453,0.9958048 0.04647,0.3839987 0.02864,0.7776181 -0.05323,1.1813232 h 0.01344 c -0.06116,0.3790202 -0.09681,0.7777418 -0.106453,1.1952759 -0.0082,0.4212335 0.001,0.7618967 0.02687,1.0221598 0.03354,0.2723639 0.07784,0.5509005 0.132809,0.8361246 0.07872,0.3369115 0.03851,0.7529223 -0.119889,1.2479859 v -0.013436 c -0.115023,0.3930916 -0.141502,0.73427185 -0.07958,1.02267656 0.0996,0.35125965 0.135253,0.74487865 0.106453,1.18132322 -0.0023,0.0547444 -0.0039,0.10843456 -0.0047,0.16123046 -0.05494,-0.001861 -0.110316,-0.003349 -0.163297,-0.006718 h -0.01292 c -0.2529,-0.016457 -0.594079,0.0100218 -1.022677,0.0795817 -0.483464,0.0916515 -0.956517,0.078413 -1.420068,-0.0397908 C 10.540816,0.74422136 10.230699,0.70399264 9.9881019,0.70900064 9.7318837,0.72680112 9.4176985,0.73597604 9.0455238,0.73587238 8.678189,0.74489617 8.3110478,0.73572571 7.9437823,0.70900064 7.5831546,0.69133345 7.2246671,0.67809078 6.8683957,0.66920979 6.5383996,0.65994419 6.2023215,0.68235393 5.8596718,0.73587238 5.4702452,0.8170492 5.0806943,0.83894218 4.6912677,0.80201821 4.3261458,0.76692697 3.9320096,0.71855591 3.5094277,0.65629068 3.1107356,0.60412503 2.765487,0.57713042 2.473832,0.57619221 2.2106996,0.57833566 1.9275777,0.63587701 1.6242715,0.74879149 V 0.73587238 C 1.3475519,0.84633228 1.0598447,0.87739573 0.76127508,0.82888996 0.75878633,1.3496582 0.75013266,1.6638433 0.7349201,1.7714681 0.71714923,1.9090325 0.68150137,2.1875692 0.62846665,2.6075927 c -0.0494732,0.3938519 -0.0448885,0.7391004 0.0134359,1.0355957 0.0873998,0.3543354 0.14494089,0.6949986 0.17259928,1.0221598 0.0266552,0.3187948 0.062304,0.6508042 0.10645345,0.9958048 0.0464656,0.3839988 0.0286415,0.7776182 -0.0532267,1.1813233 h 0.0134359 c -0.0611597,0.3790202 -0.0968095,0.7777417 -0.10645345,1.1952758 -0.00816,0.4212336 4.9494e-4,0.7618968 0.026355,1.0221598 0.0335357,0.272364 0.0778379,0.5509006 0.13280843,0.8361247 0.078722,0.3369114 0.0390251,0.7529224 -0.11937255,1.2479854 v -0.01343 c -0.11502289,0.393091 -0.14150175,0.734271 -0.0795817,1.022676 0.0996043,0.35126 0.13473606,0.744879 0.10593669,1.181323 -0.0164218,0.390258 0.005988,0.73092 0.0666626,1.02216 0.0970455,0.381476 0.0659821,0.771027 -0.0930176,1.168404 -0.0782033,0.221266 -0.10926676,0.429021 -0.0930176,0.623735 0.5911581,0.0075 0.9318219,0.0075 1.0221598,0 0.011339,-3.54e-4 0.020512,-3.54e-4 0.026872,0 0.1217304,-0.002 0.3692035,0.02499 0.7431071,0.0801 0.3419582,0.06243 0.7050313,0.08888 1.0888224,0.07958 0.4233425,-0.0095 0.8174786,0.0037 1.18184,0.03979 0.3281291,0.03312 0.6642072,0.01071 1.0087239,-0.06666 0.3950274,-0.07091 0.7621689,-0.101401 1.1017415,-0.0925 h 0.013436 c 0.3067978,0.01642 0.6342221,-0.01464 0.9823689,-0.09302 0.4035669,-0.07073 0.784464,-0.101718 1.1420492,-0.09302 0.3850705,0.01016 0.7343869,0.06312 1.0485139,0.159164 0.2613,0.08205 0.570901,0.09528 0.929143,0.03979 0.423411,-0.05398 0.817548,-0.08047 1.18184,-0.07958 0.367543,0.0084 0.721445,0.03484 1.06195,0.07958 h 0.01344 c 0.01755,0.0028 0.03512,0.0044 0.05271,0.0067 0.0062,0.04567 0.01313,0.09079 0.0217,0.134359 0.0874,0.354336 0.144941,0.694999 0.1726,1.02216 0.02665,0.318795 0.0623,0.650804 0.106453,0.995805 0.04647,0.383999 0.02864,0.777618 -0.05323,1.181323 h 0.01344 c -0.06116,0.37902 -0.09681,0.777742 -0.106453,1.195276 -0.0082,0.421233 4.95e-4,0.761897 0.02636,1.02216 0.03354,0.272364 0.07784,0.5509 0.132808,0.836124 0.07872,0.336912 0.03902,0.752923 -0.119372,1.247986 v -0.01344 c -0.115023,0.393092 -0.141502,0.734272 -0.07958,1.022677 0.0996,0.35126 0.134736,0.744879 0.105937,1.181323 -0.01642,0.390258 0.006,0.73092 0.06666,1.02216 0.09705,0.381476 0.06598,0.771026 -0.09302,1.168404 -0.0782,0.221266 -0.109267,0.429021 -0.09302,0.623735 0.591158,0.0075 0.931822,0.0075 1.02216,0 0.01134,-3.54e-4 0.02051,-3.54e-4 0.02687,0 0.12173,-0.002 0.369203,0.02499 0.743107,0.0801 0.341958,0.06243 0.705031,0.08888 1.088822,0.07958 0.423343,-0.0095 0.817479,0.0037 1.18184,0.03979 0.328129,0.03312 0.664207,0.01071 1.008724,-0.06666 0.395027,-0.07091 0.762169,-0.101401 1.101741,-0.0925 h 0.01344 c 0.306798,0.01642 0.634222,-0.01464 0.982369,-0.09302 0.403567,-0.07073 0.784464,-0.101718 1.142049,-0.09302 0.385071,0.01016 0.734387,0.06312 1.048515,0.159163 0.2613,0.08205 0.570901,0.09528 0.929142,0.03979 0.423412,-0.05398 0.817549,-0.08047 1.18184,-0.07958 0.367544,0.0084 0.721445,0.03484 1.061951,0.07958 h 0.01344 c 0.308492,0.04857 0.622675,0.02668 0.942578,-0.06615 l 0.01344,-0.01344 c 0.401561,-0.100407 0.786528,-0.135557 1.154968,-0.105937 0.265969,0.02095 0.535852,0.0515 0.80977,0.0925 0.03775,-0.554822 0.08206,-0.917377 0.132808,-1.088306 v -0.01344 c 0.03772,-0.133416 0.01531,-0.327933 -0.06666,-0.583944 C 28.83685,26.77723 28.79255,26.38768 28.82159,25.954968 c 0.02482,-0.357826 0.01616,-0.707661 -0.02636,-1.049031 -0.03544,-0.35603 -0.06651,-0.740995 -0.09302,-1.154968 -0.01922,-0.428011 0.0027,-0.781912 0.06615,-1.061951 v -0.01344 c 0.06992,-0.234921 0.105568,-0.570999 0.106453,-1.008724 v -1.088822 c -9.68e-4,-0.24073 -0.04527,-0.545745 -0.132808,-0.915707 -0.08557,-0.43278 -0.08098,-0.831502 0.01344,-1.195276 v -0.01292 c 0.08416,-0.279969 0.09738,-0.590086 0.03979,-0.929659 -0.05528,-0.379438 -0.03044,-0.784231 0.07235,-1.214396 0.04462,-1.01e-4 0.08967,-4.55e-4 0.134876,-0.0015 0.423342,-0.0095 0.817478,0.0037 1.18184,0.03979 0.328129,0.03312 0.664207,0.01071 1.008724,-0.06666 0.395027,-0.07091 0.762169,-0.101401 1.101741,-0.0925 h 0.01344 c 0.306798,0.01642 0.634222,-0.01464 0.982369,-0.09302 0.403567,-0.07073 0.784464,-0.101718 1.142049,-0.09302 0.385071,0.01016 0.734387,0.06312 1.048515,0.159164 0.2613,0.08205 0.570901,0.09528 0.929142,0.03979 0.423412,-0.05398 0.817549,-0.08047 1.18184,-0.07958 0.367544,0.0084 0.721445,0.03484 1.061951,0.07958 h 0.01344 c 0.308491,0.04857 0.622675,0.02669 0.942578,-0.06614 l 0.01344,-0.01344 c 0.40156,-0.100407 0.786527,-0.135557 1.154968,-0.105937 0.265969,0.02095 0.535852,0.0515 0.80977,0.0925 0.03775,-0.554822 0.08206,-0.917377 0.132808,-1.088306 v -0.01344 c 0.03772,-0.133415 0.01531,-0.327933 -0.06666,-0.583943 -0.117548,-0.346143 -0.161848,-0.735693 -0.132808,-1.168404 0.02482,-0.357827 0.01617,-0.707661 -0.02636,-1.049032 -0.03544,-0.35603 -0.06651,-0.740995 -0.09302,-1.154968 -0.01922,-0.428011 0.0027,-0.781912 0.06615,-1.0619508 V 9.9756212 C 41.538298,9.7407 41.573947,9.404622 41.574832,8.9668973 V 7.8780719 c -9.68e-4,-0.2407294 -0.04527,-0.5457442 -0.132809,-0.9157063 -0.08557,-0.4327808 -0.08098,-0.8315022 0.01344,-1.1952759 v -0.012919 c 0.08416,-0.2799695 0.09738,-0.5900861 0.03979,-0.929659 -0.05901,-0.4048115 -0.02795,-0.838148 0.09299,-1.3006959 0.108308,-0.3839641 0.143446,-0.7159736 0.105936,-0.9958048 V 2.5145751 C 41.658738,2.2159363 41.6236,1.8976828 41.58824,1.5590779 V 1.5456421 C 41.56659,1.2748688 41.557368,0.991747 41.561368,0.69608153 40.975429,0.59357315 40.64393,0.55333973 40.56608,0.57619221 40.439959,0.6865824 40.165492,0.75329446 39.742874,0.77566323 c -0.353022,0.0274848 -0.676378,0.0320705 -0.96945,0.0134359 h -0.01292 c -0.252899,-0.016457 -0.594079,0.0100218 -1.022676,0.0795817 -0.483465,0.0916515 -0.956517,0.078413 -1.420069,-0.0397908 -0.376944,-0.0846686 -0.687062,-0.12489732 -0.929659,-0.11988932 -0.256218,0.0178005 -0.570403,0.0269754 -0.942578,0.0268717 -0.367334,0.009024 -0.734476,-1.4667e-4 -1.101741,-0.0268717 -0.360628,-0.0176672 -0.719115,-0.0309099 -1.075387,-0.0397908 -0.329996,-0.009266 -0.666074,0.0131441 -1.008724,0.0666626 -0.389426,0.0811768 -0.778977,0.1030698 -1.168404,0.0661458 -0.365122,-0.0350912 -0.759258,-0.0834623 -1.18184,-0.14572753 -0.03173,-0.004152 -0.06093,-0.007025 -0.09198,-0.0108521 0.0013,-0.0301037 0.0021,-0.0598989 0.0041,-0.0904338 0.02482,-0.35782664 0.01616,-0.70766089 -0.02636,-1.04903155 -0.03544,-0.35602965 -0.06651,-0.74099463 -0.09302,-1.15496823 -0.01922,-0.4280106 0.0032,-0.7819116 0.06666,-1.0619507 v -0.013436 c 0.06992,-0.2349211 0.105052,-0.5709991 0.105937,-1.0087239 v -1.0888224 c -9.68e-4,-0.2407295 -0.04527,-0.5457442 -0.132808,-0.9157064 -0.08557,-0.4327807 -0.08098,-0.8315022 0.01344,-1.1952758 v -0.012919 c 0.08416,-0.2799695 0.09738,-0.5900862 0.03979,-0.929659 -0.05898,-0.4048114 -0.02792,-0.838148 0.09302,-1.3006958 0.108308,-0.3839641 0.143447,-0.7159736 0.105937,-0.9958051 v -0.01344 c -0.03544,-0.298638 -0.07058,-0.616892 -0.105937,-0.955497 v -0.01344 c -0.02165,-0.270773 -0.03087,-0.553895 -0.02687,-0.84956 -0.512696,-0.08969 -0.830771,-0.131342 -0.954464,-0.125057 z" />
    <path
       id="path5842"
       style="display:inline;fill:#d1d7db;fill-opacity:1"
       transform="matrix(0.26458333,0,0,0.26458333,-15.340019,-15.367223)"
       d="m 115.40021,10.350375 c -1.20899,-0.0081 -2.50954,0.241944 -3.90039,0.75 -0.9638,0.374609 -1.96381,0.374609 -3,0 -0.15078,-0.06497 -0.31745,-0.09792 -0.5,-0.09961 -0.27201,-0.0067 -0.50456,0.07667 -0.69922,0.25 -0.19714,0.217839 -0.29792,0.467839 -0.30078,0.75 -0.0356,2.597475 -0.0859,4.130485 -0.15039,4.599609 -0.0665,0.515235 -0.19831,1.565643 -0.39844,3.150391 -0.21237,1.739419 -0.17931,3.272413 0.0996,4.599609 0.30416,1.231884 0.50377,2.41408 0.59961,3.548828 0.0996,1.232665 0.23333,2.517595 0.40039,3.851563 0.15833,1.253481 0.10794,2.536475 -0.15039,3.849609 v 0.04883 c -0.22813,1.505972 -0.36185,3.089357 -0.40039,4.75 -0.0358,1.700357 -0.003,3.084132 0.0996,4.150391 0.14023,1.074072 0.32435,2.174887 0.55078,3.300781 0.20338,0.997509 0.0697,2.230095 -0.40039,3.699219 -0.56381,1.875486 -0.68008,3.491816 -0.34961,4.849609 v 0.05078 c 0.23613,0.830975 0.3594,1.733428 0.375,2.703125 -0.8777,0.03866 -1.89335,0.149501 -3.07617,0.347656 -1.53737,0.286458 -3.03738,0.236051 -4.500005,-0.15039 h -0.04883 c -1.653612,-0.375 -3.004444,-0.541667 -4.050781,-0.5 h -0.04883 c -0.928889,0.06589 -2.062647,0.09883 -3.400391,0.09961 h -0.05078 c -1.31665,0.03177 -2.650017,-0.0012 -4,-0.09961 -1.375113,-0.0668 -2.74144,-0.117188 -4.099609,-0.150391 -1.382535,-0.03164 -2.799253,0.06914 -4.25,0.300781 -1.26665,0.260807 -2.534132,0.326693 -3.800782,0.199219 -1.351138,-0.133854 -2.800815,-0.317968 -4.349609,-0.550781 h -0.04883 c -1.598403,-0.203646 -2.982179,-0.302474 -4.150391,-0.298828 -1.208951,-0.0081 -2.509409,0.241927 -3.90039,0.75 -0.963785,0.374592 -1.963819,0.374592 -3,0 -0.150781,-0.06497 -0.317448,-0.09792 -0.5,-0.09961 -0.272005,-0.0067 -0.504558,0.07668 -0.699219,0.25 -0.197135,0.217839 -0.297916,0.467856 -0.300781,0.75 -0.03555,2.597492 -0.08594,4.130469 -0.150391,4.59961 -0.06654,0.515218 -0.20028,1.565659 -0.40039,3.15039 -0.21237,1.739436 -0.177475,3.272414 0.101562,4.59961 0.304167,1.231867 0.503776,2.41408 0.599609,3.548828 0.09961,1.232665 0.233334,2.517611 0.400391,3.851562 0.158333,1.253498 0.107942,2.536476 -0.150391,3.84961 v 0.04883 c -0.228108,1.505955 -0.361849,3.08934 -0.40039,4.75 -0.03581,1.700357 -0.0029,3.084131 0.09961,4.15039 0.140235,1.074072 0.324366,2.174888 0.550781,3.300782 0.203385,0.997509 0.06965,2.230111 -0.40039,3.699218 -0.563802,1.875515 -0.680062,3.491795 -0.34961,4.849605 v 0.0508 c 0.323047,1.13685 0.439323,2.4043 0.34961,3.80079 v 0.0488 c -0.07018,1.66979 0.0306,3.13702 0.300781,4.40039 0.267839,1.06328 0.184505,2.14661 -0.25,3.25 -0.545556,1.49466 -0.646354,2.87855 -0.300781,4.15039 0.02005,0.23268 0.103387,0.43229 0.25,0.59961 0.184765,0.16471 0.384374,0.26566 0.599609,0.30078 0.05377,-5.2e-4 0.104164,-5.2e-4 0.150391,0 2.774298,0.0347 4.37513,0.0347 4.800781,0 0.430729,0.016 1.246632,0.11483 2.449219,0.29883 l -0.05078,-0.0488 c 1.412092,0.26485 2.912143,0.38112 4.5,0.34961 1.505452,-0.0309 2.906675,0.0195 4.201172,0.15039 1.42316,0.14101 2.872804,0.0402 4.34961,-0.30078 1.336034,-0.23112 2.586085,-0.3319 3.75,-0.30078 1.313508,0.0689 2.697299,-0.0629 4.15039,-0.39844 1.379931,-0.23342 2.680356,-0.33437 3.900391,-0.30078 1.249592,0.0284 2.381397,0.19507 3.398437,0.5 h -0.04883 c 1.243082,0.42227 2.710173,0.5056 4.400391,0.25 1.495836,-0.19557 2.877616,-0.29635 4.148446,-0.30078 0.94162,0.0252 1.85627,0.0967 2.75585,0.18946 0.20833,0.96476 0.36903,1.90717 0.44532,2.81054 0.0996,1.23268 0.23333,2.51774 0.40039,3.85156 0.15833,1.25352 0.10794,2.53662 -0.15039,3.84961 v 0.0488 c -0.22813,1.50599 -0.36185,3.08933 -0.40039,4.75 -0.0358,1.70039 -0.003,3.08412 0.0996,4.15039 0.14023,1.07409 0.32435,2.17503 0.55078,3.30078 0.20338,0.99753 0.0697,2.23008 -0.40039,3.69922 -0.56381,1.87552 -0.68008,3.4918 -0.34961,4.84961 v 0.0508 c 0.32304,1.13685 0.43932,2.40446 0.34961,3.80078 v 0.0488 c -0.0702,1.66979 0.0306,3.13685 0.30078,4.40039 0.26784,1.06328 0.1845,2.14661 -0.25,3.25 -0.54557,1.49466 -0.64636,2.87855 -0.30078,4.15039 0.02,0.23268 0.10338,0.43229 0.25,0.59961 0.18476,0.16471 0.38437,0.26549 0.59961,0.30078 0.0538,-5.2e-4 0.10416,-5.2e-4 0.15039,0 2.77418,0.0347 4.37513,0.0347 4.80078,0 0.43073,0.016 1.24661,0.11483 2.44922,0.29883 l -0.0508,-0.0488 c 1.41194,0.26485 2.91211,0.38112 4.5,0.34961 1.5053,-0.0309 2.90664,0.0195 4.20117,0.15039 1.42317,0.14101 2.87278,0.0402 4.34961,-0.30078 1.3359,-0.23112 2.58607,-0.3319 3.75,-0.30078 1.31338,0.0689 2.69726,-0.0629 4.15039,-0.39844 1.37994,-0.23359 2.68034,-0.33437 3.90039,-0.30078 1.24961,0.0284 2.38154,0.19507 3.39843,0.5 h -0.0488 c 1.24309,0.42227 2.71015,0.5056 4.40039,0.25 1.49583,-0.19557 2.87777,-0.29635 4.14843,-0.30078 1.30716,0.0349 2.57462,0.13565 3.80079,0.30078 1.44644,0.21445 2.91367,0.0982 4.40039,-0.34961 1.28763,-0.32175 2.52019,-0.43802 3.69922,-0.34961 1.23629,0.0896 2.50391,0.23881 3.80078,0.44922 0.10104,0.0288 0.19986,0.0463 0.29882,0.0508 0.27643,0.0164 0.51095,-0.0669 0.70118,-0.25 0.22044,-0.18906 0.33672,-0.42356 0.34961,-0.70117 0.12292,-2.48108 0.27213,-4.06458 0.44921,-4.75 v 0.0508 c 0.32461,-0.79701 0.24127,-1.94818 -0.25,-3.45117 v -0.0488 c -0.35725,-1.06285 -0.48918,-2.26263 -0.39843,-3.59961 0.10586,-1.47665 0.0709,-2.91093 -0.10157,-4.30078 -0.13242,-1.31849 -0.24869,-2.73515 -0.3496,-4.25 v -0.0508 c -0.0596,-1.35989 0.008,-2.49167 0.20117,-3.39844 v 0.0488 c 0.30365,-1.01523 0.45287,-2.46484 0.44922,-4.34961 v -4.09961 c 0.003,-1.02145 -0.18079,-2.30455 -0.55079,-3.84961 V 131.95 c -0.24258,-1.27669 -0.22524,-2.4608 0.0508,-3.55078 0.38307,-1.31237 0.43346,-2.76198 0.15039,-4.34961 h 0.0488 c -0.10867,-0.77929 -0.0988,-1.59602 0,-2.44336 1.12285,0.005 2.2036,0.0438 3.20118,0.14453 1.42317,0.14101 2.87278,0.0402 4.34961,-0.30078 1.3359,-0.23112 2.58607,-0.3319 3.75,-0.30078 1.31338,0.0689 2.69726,-0.0629 4.15039,-0.39844 1.37994,-0.23342 2.68034,-0.33437 3.90039,-0.30078 1.2496,0.0284 2.38154,0.19507 3.39843,0.5 h -0.0488 c 1.24309,0.42227 2.71015,0.5056 4.40039,0.25 1.49583,-0.19557 2.87777,-0.29635 4.14843,-0.30078 1.30716,0.0349 2.57462,0.13565 3.80079,0.30078 1.44644,0.21445 2.91367,0.0982 4.40039,-0.34961 1.28763,-0.32175 2.52019,-0.43785 3.69922,-0.34961 1.23629,0.0896 2.50391,0.23881 3.80078,0.44922 0.10104,0.0288 0.19986,0.0463 0.29882,0.0508 0.27643,0.0164 0.51095,-0.0669 0.70118,-0.25 0.22044,-0.18889 0.33672,-0.42356 0.34961,-0.70117 0.12292,-2.48108 0.27213,-4.06458 0.44921,-4.75 v 0.0508 c 0.32461,-0.79684 0.24127,-1.94818 -0.25,-3.45117 v -0.0488 c -0.35742,-1.06285 -0.48918,-2.26279 -0.39843,-3.5996 0.10586,-1.47682 0.0709,-2.91094 -0.10157,-4.30079 -0.13242,-1.31832 -0.24886,-2.73515 -0.3496,-4.249994 v -0.05078 c -0.0596,-1.359879 0.008,-2.491684 0.20117,-3.398438 v 0.04883 c 0.30365,-1.015218 0.45287,-2.464878 0.44922,-4.349609 V 87.85047 c 0.003,-1.021598 -0.18079,-2.304575 -0.55079,-3.84961 v -0.05078 c -0.24258,-1.276676 -0.22524,-2.460824 0.0508,-3.550781 0.38307,-1.312353 0.43346,-2.761997 0.15039,-4.34961 h 0.0488 c -0.17787,-1.275487 -0.0771,-2.641813 0.30079,-4.099609 0.48893,-1.742675 0.63814,-3.260173 0.44921,-4.550781 -0.13242,-1.101155 -0.26418,-2.28335 -0.39843,-3.548828 -0.0971,-1.209879 -0.11434,-2.477378 -0.0508,-3.800781 0.0137,-0.233333 -0.0522,-0.450391 -0.19922,-0.650391 -0.005,-0.01797 -0.0228,-0.05091 -0.0508,-0.09961 -0.0417,-0.01667 -0.0922,-0.04961 -0.15039,-0.09961 -0.14479,-0.123177 -0.32696,-0.189063 -0.54883,-0.199219 -3.57448,-0.665608 -5.59193,-0.748942 -6.05078,-0.25 -0.32109,0.181771 -0.98793,0.298047 -2,0.34961 h -0.0508 c -1.22678,0.09557 -2.35872,0.111043 -3.39843,0.04883 -1.0944,-0.06914 -2.54597,0.0491 -4.35157,0.351562 -1.5372,0.286458 -3.03737,0.236051 -4.5,-0.15039 h -0.0488 c -1.65365,-0.375 -3.00459,-0.541667 -4.05078,-0.5 h -0.0488 c -0.92891,0.06589 -2.06263,0.09883 -3.40039,0.09961 h -0.0508 c -1.31667,0.03177 -2.65017,-0.0012 -4,-0.09961 -1.37513,-0.0668 -2.74157,-0.117188 -4.09961,-0.150391 -1.38255,-0.03164 -2.79938,0.06914 -4.25,0.300781 -1.26667,0.260807 -2.53412,0.326693 -3.80079,0.199219 -0.97452,-0.09656 -2.01816,-0.228901 -3.0957,-0.376953 0.0102,-0.976738 -0.036,-1.935854 -0.15234,-2.873047 -0.13242,-1.318456 -0.25065,-2.735167 -0.35156,-4.25 v -0.05078 c -0.0596,-1.359879 0.008,-2.491683 0.20117,-3.398437 v 0.04883 c 0.30365,-1.015218 0.45287,-2.464879 0.44922,-4.34961 v -4.099609 c 0.003,-1.021598 -0.17883,-2.304591 -0.54883,-3.849609 v -0.05078 c -0.24258,-1.276659 -0.22672,-2.460824 0.0488,-3.550781 0.38307,-1.312353 0.43346,-2.762013 0.15039,-4.349609 h 0.0508 c -0.17787,-1.275504 -0.0791,-2.641814 0.29883,-4.09961 0.48893,-1.742675 0.6401,-3.260173 0.45117,-4.550781 -0.13242,-1.101155 -0.26614,-2.28335 -0.40039,-3.548828 -0.0971,-1.209879 -0.11434,-2.477361 -0.0508,-3.800781 0.0137,-0.233333 -0.0522,-0.450391 -0.19922,-0.650391 -0.005,-0.01797 -0.0228,-0.05091 -0.0508,-0.09961 -0.0417,-0.01667 -0.0921,-0.04961 -0.15039,-0.09961 -0.14479,-0.123177 -0.32696,-0.189063 -0.54883,-0.199219 -3.57448,-0.665625 -5.59193,-0.748959 -6.05078,-0.25 -0.32109,0.181771 -0.98776,0.298046 -2,0.349609 h -0.0488 c -1.22695,0.09557 -2.36068,0.111043 -3.40039,0.04883 -1.0944,-0.06914 -2.54401,0.04909 -4.34961,0.351563 -1.53737,0.286441 -3.03737,0.236067 -4.5,-0.150391 h -0.0508 c -1.65365,-0.374983 -3.00459,-0.541667 -4.05078,-0.5 h -0.0488 c -0.92891,0.06589 -2.06263,0.09883 -3.40039,0.09961 h -0.0508 c -1.31667,0.03177 -2.65017,-0.0012 -4,-0.09961 -1.37513,-0.0668 -2.74157,-0.117204 -4.09961,-0.15039 -1.38255,-0.03164 -2.79938,0.06914 -4.25,0.300781 -1.26667,0.260807 -2.53217,0.326676 -3.79883,0.199219 -1.35117,-0.133854 -2.8029,-0.317969 -4.35156,-0.550782 h -0.0488 c -1.59844,-0.203646 -2.98217,-0.302474 -4.15039,-0.298828 z m 48.19922,1.978516 c 0.57855,0.02397 1.69648,0.181151 3.35156,0.470703 -0.015,1.113524 0.0179,2.181397 0.0996,3.201172 v 0.04883 c 0.1332,1.275244 0.26692,2.474887 0.40039,3.599609 v 0.05078 c 0.14127,1.053889 0.008,2.30394 -0.40039,3.75 -0.45547,1.74204 -0.57174,3.375816 -0.34961,4.900391 0.21693,1.278889 0.16654,2.44559 -0.15039,3.5 v 0.04883 c -0.3556,1.370035 -0.37281,2.870086 -0.0508,4.5 0.32969,1.393342 0.49635,2.544548 0.5,3.451172 v 4.099609 c -0.003,1.648551 -0.13706,2.916017 -0.40039,3.800782 v 0.04883 c -0.23906,1.05467 -0.32239,2.388038 -0.25,4 0.0999,1.559076 0.21809,3.008736 0.35156,4.349609 0.0992,0.796573 0.16971,1.607755 0.14453,2.427734 -0.0355,1.155438 -0.0625,1.154292 -0.0625,2.197266 1.16603,0.105502 1.16806,0.04071 2.20121,0.105502 0.96623,0.06059 1.8928,0.236427 2.76563,0.320312 1.4665,0.139063 2.93372,0.05573 4.40039,-0.25 1.29049,-0.201563 2.55615,-0.284896 3.79882,-0.25 1.3418,0.03346 2.69258,0.08385 4.05079,0.150391 1.38304,0.100651 2.76692,0.133582 4.15039,0.09961 1.40169,3.91e-4 2.58401,-0.03255 3.54882,-0.09961 0.91368,-0.01888 2.0805,0.130339 3.5,0.449219 1.74583,0.445165 3.53074,0.495572 5.35157,0.15039 1.61419,-0.261979 2.89714,-0.36276 3.84961,-0.300781 h 0.0488 c 1.10377,0.07018 2.32084,0.05469 3.6504,-0.04883 1.5915,-0.08425 2.6246,-0.334262 3.0996,-0.75 0.0733,-0.02152 0.20749,-0.02949 0.4004,-0.02148 0.57855,0.02397 1.69469,0.181151 3.3496,0.470704 -0.015,1.113507 0.0199,2.181396 0.10157,3.201171 v 0.04883 c 0.1332,1.275227 0.26496,2.474887 0.39843,3.599609 v 0.05078 c 0.14127,1.053889 0.01,2.30394 -0.39843,3.75 -0.45547,1.742023 -0.5737,3.375799 -0.35157,4.900391 0.21693,1.278872 0.1685,2.44559 -0.14843,3.5 v 0.04883 c -0.3556,1.370018 -0.37281,2.870069 -0.0508,4.5 0.32969,1.393325 0.49635,2.544548 0.5,3.451172 v 4.099609 c -0.003,1.648534 -0.13723,2.916033 -0.40039,3.800781 v 0.04883 c -0.23906,1.05467 -0.32239,2.388055 -0.25,4 0.0998,1.559092 0.21613,3.008712 0.3496,4.349602 0.16015,1.28568 0.19506,2.60369 0.10157,3.95117 -0.10937,1.62969 0.0573,3.09675 0.5,4.4004 0.30873,0.96402 0.39206,1.69674 0.25,2.19921 v 0.0508 c -0.19115,0.64358 -0.35781,2.01019 -0.5,4.0996 -1.03164,-0.15443 -2.04926,-0.27086 -3.05078,-0.3496 -1.38763,-0.11159 -2.83741,0.0201 -4.34961,0.39843 l -0.0508,0.0508 c -1.20482,0.34961 -2.38698,0.43294 -3.54883,0.25 h -0.0508 c -1.28242,-0.16849 -2.61592,-0.26927 -4,-0.30078 -1.37201,-0.003 -2.85456,0.0975 -4.44922,0.30078 -1.34922,0.20899 -2.51589,0.15861 -3.5,-0.15039 -1.18307,-0.36172 -2.50108,-0.56133 -3.95117,-0.59961 -1.34675,-0.0331 -2.77891,0.0832 -4.29883,0.34961 -1.3112,0.29518 -2.54587,0.41146 -3.70117,0.34961 h -0.0488 c -1.27891,-0.0337 -2.66263,0.0845 -4.15039,0.35157 -1.29753,0.29124 -2.56514,0.37457 -3.80078,0.25 -0.94677,-0.0937 -2.0371,-0.0651 -3.04883,-0.35547 -0.71124,-0.2041 -1.10151,-0.34566 -2,-0.54493 -0.25004,0.75003 -0.29209,1.82633 -0.38282,2.7461 -0.0976,0.95268 -0.0965,1.87387 0.0312,2.7539 0.21693,1.27891 0.1685,2.44574 -0.14843,3.5 v 0.0488 c -0.3556,1.37005 -0.37281,2.87006 -0.0508,4.5 0.32969,1.39336 0.49635,2.54469 0.5,3.45117 v 4.09961 c -0.003,1.64857 -0.13706,2.91618 -0.40039,3.80078 v 0.0488 c -0.23906,1.05469 -0.32239,2.38803 -0.25,4 0.0999,1.55912 0.21613,3.00873 0.3496,4.34962 0.16015,1.28568 0.19506,2.60369 0.10157,3.95117 -0.10937,1.62969 0.0573,3.0969 0.5,4.40038 0.30873,0.96419 0.39206,1.69676 0.25,2.19922 v 0.0508 c -0.19115,0.64376 -0.35781,2.0102 -0.5,4.09961 -1.03164,-0.15442 -2.04909,-0.2707 -3.05078,-0.34961 -1.38763,-0.11159 -2.83724,0.0201 -4.34961,0.39844 l -0.0508,0.0508 c -1.20482,0.34961 -2.38698,0.43293 -3.54883,0.24999 h -0.0508 c -1.28242,-0.16849 -2.61592,-0.26927 -4,-0.30078 -1.37201,-0.003 -2.85456,0.0975 -4.44922,0.30078 -1.34922,0.20899 -2.51589,0.1586 -3.5,-0.15039 -1.18307,-0.36171 -2.50107,-0.56133 -3.95117,-0.5996 -1.34675,-0.0331 -2.77891,0.0832 -4.29883,0.34961 -1.3112,0.29517 -2.54587,0.41145 -3.70117,0.34961 h -0.0488 c -1.27891,-0.0337 -2.66263,0.0845 -4.15039,0.35156 -1.29753,0.29141 -2.56514,0.37474 -3.80078,0.25 -1.37227,-0.13581 -2.85482,-0.1862 -4.44922,-0.15039 -1.44544,0.0351 -2.81172,-0.0657 -4.09961,-0.30078 -1.4082,-0.20755 -2.34232,-0.30638 -2.80078,-0.29883 -0.024,-0.001 -0.0569,-0.001 -0.0996,0 -0.34024,0.0283 -1.62318,0.0283 -3.84961,0 -0.0612,-0.73316 0.0551,-1.51823 0.34961,-2.35156 0.59882,-1.49661 0.7151,-2.96173 0.34961,-4.39844 -0.22852,-1.0967 -0.31185,-2.38177 -0.25,-3.85157 0.10846,-1.64375 -0.0253,-3.12629 -0.40039,-4.44921 -0.23321,-1.0862 -0.13243,-2.36914 0.30078,-3.84962 v 0.0488 c 0.59648,-1.86445 0.7457,-3.43034 0.44922,-4.69923 -0.20704,-1.07421 -0.3737,-2.1246 -0.5,-3.15038 -0.0974,-0.9802 -0.13046,-2.26315 -0.0996,-3.84962 0.0363,-1.57235 0.17005,-3.07251 0.40039,-4.49999 h -0.0508 c 0.30833,-1.52029 0.37617,-3.003 0.20117,-4.44922 -0.16628,-1.29918 -0.3,-2.54935 -0.40039,-3.75 -0.0671,-0.79416 -0.19872,-1.61822 -0.35938,-2.45507 -0.0555,-0.84567 -0.0178,-1.88737 0.01,-2.29492 -1.25025,0.0312 -1.65163,0.0728 -2.43164,0.0312 -0.7755,-0.0413 -1.56054,-0.11441 -2.36914,-0.13282 -1.37201,-0.003 -2.85456,0.0975 -4.449222,0.30078 -1.349202,0.20899 -2.515902,0.1586 -3.5,-0.15039 -1.183056,-0.36173 -2.500945,-0.56133 -3.951172,-0.59961 -1.346728,-0.0331 -2.77894,0.0832 -4.298828,0.34961 -1.311181,0.29518 -2.54572,0.41146 -3.701172,0.34961 h -0.04883 c -1.278889,-0.0337 -2.662647,0.0845 -4.150391,0.35156 -1.297492,0.29125 -2.564991,0.37458 -3.800781,0.25 -1.372248,-0.1358 -2.854835,-0.1862 -4.449219,-0.1504 -1.445409,0.0351 -2.811735,-0.0657 -4.099609,-0.30077 -1.408186,-0.20755 -2.342335,-0.30638 -2.800781,-0.29883 -0.02396,-0.001 -0.0569,-0.001 -0.09961,0 -0.340218,0.0282 -1.623211,0.0282 -3.849609,0 -0.0612,-0.73332 0.05508,-1.51824 0.349609,-2.35157 0.598828,-1.49661 0.715088,-2.96187 0.34961,-4.39843 -0.228515,-1.09687 -0.311849,-2.38178 -0.25,-3.85157 0.108463,-1.64374 -0.02526,-3.12629 -0.400391,-4.44922 -0.233203,-1.0862 -0.132405,-2.36913 0.300781,-3.8496 v 0.0488 c 0.596485,-1.864379 0.745704,-3.430358 0.449219,-4.699221 -0.207031,-1.074202 -0.373698,-2.124627 -0.5,-3.150391 -0.0974,-0.980191 -0.130326,-2.263184 -0.09961,-3.849609 0.03633,-1.572492 0.170067,-3.072543 0.40039,-4.5 h -0.05078 c 0.308333,-1.520409 0.376172,-3.003012 0.201172,-4.449219 -0.166276,-1.299315 -0.3,-2.549366 -0.400391,-3.75 -0.104167,-1.232127 -0.32124,-2.517074 -0.65039,-3.851562 -0.219661,-1.11665 -0.237117,-2.415122 -0.05078,-3.898438 0.199739,-1.581867 0.333464,-2.632308 0.400391,-3.15039 0.05729,-0.405339 0.09024,-1.589487 0.09961,-3.550781 1.124462,0.182665 2.207847,0.06641 3.25,-0.34961 v 0.05078 c 1.142301,-0.425244 2.210174,-0.642317 3.201172,-0.65039 1.09842,0.0035 2.398845,0.102361 3.900391,0.298828 1.591503,0.234505 3.074106,0.41862 4.449219,0.550781 1.466633,0.139063 2.933757,0.05573 4.40039,-0.25 1.290478,-0.201563 2.556023,-0.284896 3.798828,-0.25 1.34178,0.03346 2.692596,0.08385 4.050782,0.150391 1.383169,0.100651 2.766961,0.133582 4.15039,0.09961 1.401676,3.91e-4 2.583871,-0.03255 3.548828,-0.09961 0.913655,-0.01888 2.080373,0.130339 3.5,0.449219 1.745824,0.445165 3.530734,0.495572 5.351564,0.15039 0.92087,-0.149455 1.72048,-0.33058 2.42578,-0.283203 1.03346,0.06942 1.07401,0.138185 2.25584,0.160153 0.0703,-0.967229 0.032,-0.975566 0.0528,-2.162028 0.0203,-1.159424 -0.15692,-2.232287 -0.43554,-3.214844 -0.23321,-1.086183 -0.13243,-2.369173 0.30078,-3.849609 v 0.04883 c 0.59648,-1.864419 0.7457,-3.430356 0.44922,-4.699219 -0.20704,-1.074202 -0.3737,-2.124626 -0.5,-3.15039 -0.0974,-0.980191 -0.13046,-2.263168 -0.0996,-3.84961 0.0363,-1.572492 0.17005,-3.072543 0.40039,-4.5 h -0.0508 c 0.30833,-1.520409 0.37617,-3.003028 0.20117,-4.449218 -0.16628,-1.299332 -0.3,-2.549383 -0.40039,-3.75 -0.10417,-1.232144 -0.32123,-2.517075 -0.65039,-3.851563 -0.21966,-1.11665 -0.23552,-2.415138 -0.0488,-3.898437 0.19974,-1.581884 0.33151,-2.632292 0.39844,-3.150391 0.0573,-0.405322 0.0922,-1.589487 0.10156,-3.550781 1.12448,0.182682 2.20781,0.0664 3.25,-0.349609 v 0.05078 c 1.14232,-0.425261 2.2082,-0.642318 3.19922,-0.650391 1.09843,0.0035 2.39883,0.102361 3.90039,0.298828 1.59153,0.234505 3.07409,0.418621 4.44922,0.550782 1.4665,0.139046 2.93372,0.05573 4.40039,-0.25 1.29049,-0.201563 2.55794,-0.284896 3.80078,-0.25 1.34179,0.03346 2.69062,0.08385 4.04883,0.15039 1.38304,0.100651 2.76693,0.133578 4.15039,0.09961 1.40169,3.91e-4 2.5858,-0.03255 3.55078,-0.09961 0.91367,-0.01888 2.08034,0.130339 3.5,0.449219 1.74583,0.445165 3.52878,0.495556 5.34961,0.150391 1.61419,-0.261979 2.89714,-0.362761 3.84961,-0.300782 h 0.0508 c 1.10377,0.07018 2.31888,0.05469 3.64844,-0.04883 1.5915,-0.08425 2.62656,-0.334245 3.10156,-0.75 0.0733,-0.02152 0.20553,-0.02947 0.39844,-0.02148 z"
       sodipodi:nodetypes="cccccccccccccccccccccccccccccccccccccccccccccccccccccccccccccccccccccccccccccccccccccccccccccccccccccccccccccccccccccccccccccccccccccccccccccccccccccccccccccccccccccccccccccccccccccccccccccccccccccccccccccccccccccccccccccccccccccccccccccccccccscsccccccccccccccccccccccccccccccccccccccccccccccccccccccccccccccccccccccccccccccccccccccccccccccccccccccccccccccccccccccccccccccccccccccccccccccccscscccccccccccccccccccccccccccccccc" />
  </g>
</svg>
